<?xml version="1.0" encoding="utf-8"?>
<!-- Generator: Adobe Illustrator 18.0.0, SVG Export Plug-In . SVG Version: 6.00 Build 0)  -->
<!DOCTYPE svg PUBLIC "-//W3C//DTD SVG 1.1//EN" "http://www.w3.org/Graphics/SVG/1.1/DTD/svg11.dtd">
<svg version="1.1" id="Layer_1" xmlns="http://www.w3.org/2000/svg" xmlns:xlink="http://www.w3.org/1999/xlink" x="0px" y="0px"
	 viewBox="0 0 1400 980" enable-background="new 0 0 1400 980" xml:space="preserve">
<g>
	<rect fill="#005A75" width="1400" height="980"/>
	<g>
		<g>
			<g>
				<g>
					<path fill="#003144" d="M156.8,806c2.1,0-65.8,7.2-37.4-57.8C121.9,747.6,159.1,749.2,156.8,806z"/>
					<path fill="#003144" d="M173.2,763.2c1.7,0.1-57.3-2.1-21.4-58.4C154.1,704.4,185.9,710.9,173.2,763.2z"/>
					<path fill="#003144" d="M195.3,725.7c1.5,0.3-48.8-9.2-7.8-57.4C189.5,668.2,216,678.3,195.3,725.7z"/>
					<path fill="#003144" d="M221.4,693.3c1.3,0.4-40.5-14.5,3.8-55.2C226.9,638.1,248.1,651,221.4,693.3z"/>
					<path fill="#003144" d="M250,665.7c1.1,0.4-32.7-18.4,13.6-52.2C265.2,613.7,281.4,628.4,250,665.7z"/>
					<path fill="#003144" d="M280.3,642.6c0.9,0.5-25.4-21,21.9-48.6C303.6,594.2,315.1,610.1,280.3,642.6z"/>
					<path fill="#003144" d="M311.5,623.6c0.8,0.5-18.7-22.6,28.9-44.7C341.7,579.3,348.9,595.7,311.5,623.6z"/>
					<path fill="#003144" d="M343.1,608.3c0.7,0.5-12.6-23.4,34.9-40.5C379.1,568.3,382.3,584.9,343.1,608.3z"/>
					<path fill="#003144" d="M160.9,805.9c0.7,0.7,56.9-2.5,76.4-40.7C237.9,766.7,197,749.1,160.9,805.9z"/>
					<path fill="#003144" d="M176.7,763.6c0.5,0.7,49,5.7,73.4-27.8C250.4,737.1,218.4,715.9,176.7,763.6z"/>
					<path fill="#003144" d="M198.3,726.5c0.3,0.7,41,11.9,68.7-17C267,710.7,243.1,687.2,198.3,726.5z"/>
					<path fill="#003144" d="M223.8,694.4c0.2,0.6,33.2,16.4,63.1-8.1C286.7,687.4,270,662.6,223.8,694.4z"/>
					<path fill="#003144" d="M251.9,667.1c0.1,0.5,25.8,19.6,57-0.8C308.6,667.2,298.4,641.9,251.9,667.1z"/>
					<path fill="#003144" d="M281.7,644.1c0,0.5,18.9,21.7,50.7,5.1C332.1,650,327.6,624.9,281.7,644.1z"/>
					<path fill="#003144" d="M312.5,625.2c-0.1,0.4,12.5,22.8,44.5,9.8C356.6,635.6,357.2,611.2,312.5,625.2z"/>
					<path fill="#003144" d="M343.7,609.9c-0.1,0.4,6.7,23.2,38.5,13.5C381.8,623.9,386.8,600.6,343.7,609.9z"/>
					<path fill="#003144" d="M416,586.2c1.6,0.1-27-10.5-58.9,17.3C391.3,606.1,414.5,586.3,416,586.2z"/>
				</g>
				<g>
					<path fill="#003144" d="M154.8,904.7c-3,1.1-5.7,0.2-6-1.9c-4.7-30.5-2.9-61,4.5-90.4c0.5-2,3.1-3.8,5.7-3.9
						c2.6-0.1,4.3,1.4,3.8,3.3c-6.8,28.4-8.2,57.9-3.3,87.3C159.9,901.1,157.8,903.6,154.8,904.7z"/>
				</g>
			</g>
			<g>
				<g>
					<path fill="#FFCA28" d="M141.9,788.9c2.1,0-64,8.6-45.3-68.5C98.9,719.6,136.2,721.4,141.9,788.9z"/>
					<path fill="#FFCA28" d="M152.2,738c1.8,0.2-57.2-2.4-29.6-69.7C124.8,667.8,157.5,675.5,152.2,738z"/>
					<path fill="#FFCA28" d="M169,693.2c1.5,0.3-50-10.9-15.8-69C155.1,624,183.1,636.1,169,693.2z"/>
					<path fill="#FFCA28" d="M190.5,654.1c1.3,0.4-42.6-17.3-3.8-66.8C188.5,587.3,211.6,602.8,190.5,654.1z"/>
					<path fill="#FFCA28" d="M215.5,620.7c1.1,0.5-35.4-22.1,6.6-63.6C223.7,557.3,242,575.1,215.5,620.7z"/>
					<path fill="#FFCA28" d="M242.9,592.5c1,0.6-28.4-25.4,15.6-59.5C259.9,533.3,273.7,552.6,242.9,592.5z"/>
					<path fill="#FFCA28" d="M271.8,569.1c0.9,0.6-21.9-27.5,23.4-54.9C296.5,514.6,306,534.8,271.8,569.1z"/>
					<path fill="#FFCA28" d="M301.8,550.3c0.8,0.6-15.8-28.7,30.2-50C333.1,500.8,338.5,521.2,301.8,550.3z"/>
					<path fill="#FFCA28" d="M145.9,788.7c0.8,0.9,56.1-3.1,70.3-48.5C217,742,173.9,721.2,145.9,788.7z"/>
					<path fill="#FFCA28" d="M155.7,738.5c0.6,0.8,49.6,6.6,69.3-33.4C225.5,706.7,190.7,681.4,155.7,738.5z"/>
					<path fill="#FFCA28" d="M172,694.2c0.4,0.8,42.6,14.1,66.4-20.7C238.6,674.9,211.4,646.7,172,694.2z"/>
					<path fill="#FFCA28" d="M193.1,655.5c0.2,0.7,35.5,19.6,62.2-10C255.2,646.7,235.2,616.8,193.1,655.5z"/>
					<path fill="#FFCA28" d="M217.6,622.3c0.1,0.7,28.5,23.6,57.2-1.2C274.6,622.2,261,591.5,217.6,622.3z"/>
					<path fill="#FFCA28" d="M244.5,594.3c0.1,0.6,21.9,26.2,51.8,6C296,601.2,288.2,570.6,244.5,594.3z"/>
					<path fill="#FFCA28" d="M273,571c0,0.5,15.6,27.7,46.3,11.7C318.9,583.6,316.4,553.7,273,571z"/>
					<path fill="#FFCA28" d="M302.5,552.2c0,0.5,9.8,28.4,40.7,16.2C342.9,569.1,345.1,540.5,302.5,552.2z"/>
					<path fill="#FFCA28" d="M372.9,522.6c1.7,0.1-28.8-12.7-57.6,21.7C350.4,547.2,371.5,522.8,372.9,522.6z"/>
				</g>
				<g>
					<path fill="#FFCA28" d="M153.7,904.6c-2.8,1.3-5.5,0.3-6.1-2.2c-8.9-35.6-11.4-71.4-8.2-106c0.2-2.4,2.5-4.5,5.1-4.6
						c2.5-0.2,4.4,1.6,4.2,3.9c-2.8,33.5,0,68,8.9,102.4C158.1,900.5,156.4,903.4,153.7,904.6z"/>
				</g>
			</g>
		</g>
		<g>
			<g>
				<g>
					<path fill="#003144" d="M449.9,764c-2.5-8.6-24.1-25.2-25.4-38.4c7.4-18.5,27.5-41,27.6-40.9c-19.8,20.6-27.5,37.4-27.5,37.3
						c-0.7-0.3-19.8,39.6-10.7,57.8c8.3,18.9,27.2,25.8,27.1,25.8C440.3,805.2,451.5,773.9,449.9,764z"/>
					<path fill="#003144" d="M464.6,765.5c9.7-7.7,42.6-13.2,55.1-18.2c9.7-11.1,19.7-26.3,19.8-26.3c-9,14.7-16.6,24.6-16.7,24.6
						c-0.4-0.1-17.1,24-35.5,37c-19.7,13.1-41.9,22.7-41.9,22.6C444.7,805.3,453.3,773.5,464.6,765.5z"/>
					<path fill="#003144" d="M474.1,722.1c-0.5-8-15-26.2-13.9-38.2c9.3-15.5,29.8-33.2,29.9-33.1c-19.9,16.1-29.2,30-29.2,29.9
						c-0.7-0.4-26.9,37.2-22.1,54.3c4,17.5,20.2,22.1,20,22.2C458.4,757,473.7,731.2,474.1,722.1z"/>
					<path fill="#003144" d="M486,725.6c9.5-5.4,38.2-6.2,49.6-9c10.3-8.8,21.7-21.4,21.8-21.4c-10.4,12.3-18.8,20.3-18.9,20.4
						c-0.3-0.1-19,19.4-36.9,28.2c-18.9,8.7-39.1,14-39.1,14C462,757.6,475.2,731.2,486,725.6z"/>
					<path fill="#003144" d="M501.8,688c1-7.3-7.7-26.1-4.7-36.9c10.4-12.9,30.6-26.8,30.7-26.7c-19.5,12.5-29.6,24-29.6,23.9
						c-0.5-0.4-29.2,30.7-28.1,46.5c0.3,16.1,12.8,22.5,12.6,22.6C482.5,717.2,499.9,696.2,501.8,688z"/>
					<path fill="#003144" d="M511.2,692.8c8.9-3.7,33.6-1,43.8-2.2c10.4-6.8,22.5-17.2,22.6-17.2c-11.2,10.3-19.9,16.6-20,16.6
						c-0.3-0.2-22.6,18.7-39.2,24.5c-17.5,5.6-32.8,4.1-32.8,3.9C485.4,718.3,501.1,696.4,511.2,692.8z"/>
					<path fill="#003144" d="M531,660.5c2.1-6.6-1.6-25.3,2.7-34.9c11-10.7,30.6-21.5,30.6-21.4c-18.8,9.6-29.2,19-29.2,18.9
						c-0.4-0.4-30.2,25.2-31.9,39.6c-2.5,14.7,6.9,22.1,6.8,22.1C509.7,684.7,528,667.8,531,660.5z"/>
					<path fill="#003144" d="M538.2,666c8.2-2.3,29.2,2.7,38.2,2.8c10.2-5.1,22.6-13.6,22.7-13.6c-11.6,8.4-20.2,13.3-20.3,13.3
						c-0.3-0.2-23.1,15-38.2,18.2c-15.8,3-28.4-0.5-28.4-0.6C511.9,686,529,668.2,538.2,666z"/>
					<path fill="#003144" d="M560.6,638.4c2.9-5.9,3.3-24.1,8.5-32.6c11.2-8.8,29.9-17.1,29.9-17c-17.9,7.3-28.4,14.9-28.3,14.9
						c-0.3-0.3-30.5,20.5-34.3,33.7c-4.5,13.2,2.2,21.2,2.1,21.2C538.3,658.4,556.8,644.9,560.6,638.4z"/>
					<path fill="#003144" d="M565.8,644.3c7.4-1.2,25.1,5.5,33,6.5c9.8-3.7,22.2-10.5,22.3-10.5c-11.7,6.8-20,10.5-20.1,10.5
						c-0.2-0.2-23.1,11.9-36.6,13.1c-14.1,0.9-24.2-3.8-24.1-3.9C540,659.9,557.6,645.4,565.8,644.3z"/>
					<path fill="#003144" d="M589.7,620.9c3.5-5.3,7.3-22.5,13.3-30.1c11.2-7.3,29-13.5,29-13.4c-16.9,5.3-27.3,11.6-27.3,11.5
						c-0.3-0.3-30.4,16.6-35.8,28.4c-6.1,11.9-1.6,20-1.7,20C567.2,637.3,585.4,626.7,589.7,620.9z"/>
					<path fill="#003144" d="M593.3,627c6.7-0.4,21.4,7.4,28.2,9.1c9.3-2.6,21.5-7.9,21.5-7.9c-11.6,5.5-19.6,8.1-19.6,8.1
						c-0.2-0.2-22.8,9.2-34.7,8.9c-12.4-0.6-20.3-6.2-20.2-6.2C568.4,638.9,586,627.2,593.3,627z"/>
					<path fill="#003144" d="M618.1,607.3c3.9-4.7,10.5-20.9,17.1-27.5c11-5.9,27.9-10.4,27.9-10.4c-15.9,3.8-26.1,8.8-26.1,8.7
						c-0.2-0.3-29.9,13.3-36.5,23.9c-7.2,10.6-4.7,18.7-4.8,18.7C595.7,620.6,613.3,612.3,618.1,607.3z"/>
					<path fill="#003144" d="M620.3,613.3c6,0.2,18.1,8.8,23.9,11c8.7-1.6,20.6-5.8,20.7-5.7c-11.3,4.3-18.9,6.1-19,6.1
						c-0.1-0.2-22.2,6.9-32.6,5.5c-10.8-1.8-16.7-7.8-16.7-7.8C596.4,622.2,613.8,612.9,620.3,613.3z"/>
					<path fill="#003144" d="M671,592.6c6.8-2.1,13.8-4.1,20.9-5.8c-7,1.3-14,2.7-20.9,4.4c1.5,0.1-22.5-10.3-51.2,18.8
						C654.6,611.7,669.8,592.9,671,592.6z"/>
				</g>
				<g>
					<path fill="#003144" d="M441,902.8c-2.9,1.1-5.6,0.3-6-1.8c-5.3-30.1-4.3-60.2,2.3-89.2c0.5-2,3-3.8,5.5-3.9
						c2.6-0.1,4.3,1.3,3.9,3.2c-6,28-6.7,57.1-1.2,86.1C445.9,899.2,443.9,901.7,441,902.8z"/>
				</g>
			</g>
			<g>
				<g>
					<path fill="#FFCA28" d="M430.9,739.3c-3.5-10.3-27.2-30.1-30.2-46c5.2-22.3,22.8-49.6,22.9-49.4c-17.5,25-23.2,45.3-23.3,45.1
						c-0.7-0.4-15,47.6-3.8,69.2c10.5,22.4,30.3,30.6,30.2,30.6C426.2,788.6,433.6,751.1,430.9,739.3z"/>
					<path fill="#FFCA28" d="M445.9,741.1c8.8-9.2,41.3-16,53.3-22c8.5-13.4,16.9-31.7,17.1-31.7c-7.4,17.7-14,29.7-14.1,29.7
						c-0.4-0.1-14.5,28.8-31.5,44.4c-18.3,15.7-39.4,27.1-39.4,27C430.5,788.6,435.4,750.8,445.9,741.1z"/>
					<path fill="#FFCA28" d="M450.3,689c-1.4-9.6-18.2-31.6-18.5-46.1c7.6-18.8,26.3-40.6,26.4-40.4c-18.3,19.8-26,36.6-26.1,36.5
						c-0.7-0.5-22.7,45.1-15.8,65.6c6.1,20.9,22.9,26.5,22.7,26.6C438.7,730.9,450.9,699.9,450.3,689z"/>
					<path fill="#FFCA28" d="M462.8,693.2c8.9-6.6,37.8-7.6,49.1-11.1c9.5-10.6,19.6-26,19.7-26c-9.2,15-16.8,24.7-16.9,24.7
						c-0.3-0.2-17.1,23.5-34.1,34.1c-18,10.5-37.7,17-37.8,16.9C442.3,731.7,452.5,699.9,462.8,693.2z"/>
					<path fill="#FFCA28" d="M474.3,647.7c0.2-8.9-10.8-31.7-9-44.8c9.1-15.8,28-33,28.1-32.8c-18.4,15.5-27.3,29.5-27.3,29.4
						c-0.6-0.5-25.9,37.5-23,56.6c2.2,19.5,15.6,27.1,15.4,27.2C458.2,683,473.3,657.6,474.3,647.7z"/>
					<path fill="#FFCA28" d="M484.4,653.4c8.6-4.5,33.9-1.4,44.2-2.9c9.8-8.3,21-21,21.1-21c-10.3,12.5-18.3,20.2-18.4,20.2
						c-0.4-0.3-20.8,22.7-36.9,29.8c-17,6.9-32.7,5-32.7,4.9C461.2,684.3,474.6,657.9,484.4,653.4z"/>
					<path fill="#FFCA28" d="M500.8,614.1c1.4-8-4.6-30.9-1.3-42.7c10-13.2,28.7-26.6,28.8-26.5c-18.1,11.9-27.6,23.5-27.6,23.4
						c-0.5-0.4-27.8,31-27.9,48.6c-0.8,17.8,9.6,26.8,9.4,26.9C482,643.6,498.6,623,500.8,614.1z"/>
					<path fill="#FFCA28" d="M508.7,620.8c8.1-2.8,29.9,3.2,39.1,3.2c9.8-6.3,21.5-16.7,21.6-16.7c-10.9,10.3-19.1,16.3-19.2,16.3
						c-0.3-0.3-21.8,18.4-36.8,22.3c-15.7,3.7-28.9-0.5-28.8-0.6C484.4,645.3,499.7,623.5,508.7,620.8z"/>
					<path fill="#FFCA28" d="M528.4,587c2.3-7.2,0.6-29.5,5.1-40c10.4-10.9,28.7-21.3,28.7-21.2c-17.5,9.1-27.3,18.6-27.3,18.5
						c-0.4-0.4-28.8,25.4-31.2,41.5c-3.1,16.2,4.6,25.9,4.5,25.9C508,611.5,525.2,595,528.4,587z"/>
					<path fill="#FFCA28" d="M534.4,594.2c7.4-1.5,26.2,6.6,34.3,7.7c9.6-4.6,21.5-13,21.6-13c-11.2,8.4-19.3,13-19.4,13
						c-0.2-0.2-22.2,14.6-35.8,16.2c-14.2,1.2-25-4.5-25-4.6C509.8,613.4,526.1,595.5,534.4,594.2z"/>
					<path fill="#FFCA28" d="M556.2,565.4c3-6.5,4.9-27.7,10.3-37.1c10.7-9,28.3-16.8,28.3-16.8C578,518.3,568,526,568,526
						c-0.3-0.4-29.2,20.7-33.4,35.2c-4.8,14.6,0.6,24.6,0.5,24.6C535,585.6,552.4,572.5,556.2,565.4z"/>
					<path fill="#FFCA28" d="M560.5,572.9c6.8-0.5,22.7,9,29.8,11c9.2-3.2,21.1-9.9,21.2-9.8c-11.2,6.8-19.1,10.1-19.2,10.1
						c-0.2-0.2-22.2,11.4-34.4,11.1c-12.7-0.7-21.3-7.4-21.3-7.5C536.4,587.5,553,573.1,560.5,572.9z"/>
					<path fill="#FFCA28" d="M583.7,548.4c3.5-5.8,8.5-25.8,14.5-34c10.7-7.4,27.6-13.1,27.6-13.1c-16,4.8-25.9,11-25.9,11
						c-0.2-0.3-29.2,16.6-34.8,29.7c-6.2,13.1-2.7,23-2.8,23C562.2,564.9,579.3,554.7,583.7,548.4z"/>
					<path fill="#FFCA28" d="M586.6,555.9c6.1,0.2,19.5,10.7,25.6,13.3c8.8-2,20.5-7.2,20.5-7.2c-11.1,5.3-18.7,7.6-18.8,7.6
						c-0.1-0.2-22,8.6-32.7,6.9c-11.2-2.1-17.9-9.5-17.9-9.5C563.2,566.9,579.9,555.3,586.6,555.9z"/>
					<path fill="#FFCA28" d="M636.3,530.1c6.8-2.7,13.8-5.1,20.9-7.3c-7.1,1.6-14.1,3.5-21,5.5c1.6,0.1-24.1-12.5-50.4,23.5
						C621.5,553.7,635.1,530.4,636.3,530.1z"/>
				</g>
				<g>
					<path fill="#FFCA28" d="M438.3,903.6c-2.8,1.3-5.6,0.3-6.2-2.1c-8.8-35.3-11.3-70.8-8.2-105.2c0.2-2.4,2.5-4.5,5.1-4.6
						c2.6-0.2,4.5,1.5,4.3,3.8c-2.7,33.2,0,67.4,8.9,101.5C442.8,899.3,441,902.3,438.3,903.6z"/>
				</g>
			</g>
		</g>
		<g>
			<g>
				<g>
					<path fill="#003144" d="M735.5,800c-0.3-0.2,0.2-26.9-12.1-45.3c-12.5-18.1-5.9-32.9-6.1-32.6C715.8,720.5,683,786.2,735.5,800
						z"/>
					<path fill="#003144" d="M739.9,784.1c-0.5,0,15.5-27.1,41.3-35.6c24.3-8.2,31.4-15.1,31.5-15.3
						C811.1,733.6,793.7,768.3,739.9,784.1z"/>
					<path fill="#003144" d="M745.9,766.9c-0.2-0.2,4.3-25-4-43.6c-8.5-18.3-0.5-31.5-0.8-31.3C740,690.6,701.7,748.1,745.9,766.9z"
						/>
					<path fill="#003144" d="M752.2,752.6c-0.4,0,17.7-23.5,41.9-28.7c22.9-5.2,30.3-11,30.4-11.2
						C823.1,712.9,802.1,744.2,752.2,752.6z"/>
					<path fill="#003144" d="M760.1,737.3c-0.1-0.2,7.5-22.9,2.7-41.4c-5-18.2,3.9-29.8,3.7-29.7
						C765.7,664.9,723.7,714.9,760.1,737.3z"/>
					<path fill="#003144" d="M767.7,724.6c-0.4,0,19.2-20.2,41.6-22.7c21.3-2.6,28.8-7.5,29-7.6C837,694.3,813.3,722.3,767.7,724.6z
						"/>
					<path fill="#003144" d="M777,711c-0.1-0.2,10-20.9,8.4-39c-1.9-17.8,7.7-28.1,7.5-28C792.3,642.8,747.9,686.1,777,711z"/>
					<path fill="#003144" d="M785.6,699.8c-0.3-0.1,20-17.1,40.5-17.4c19.5-0.4,27.1-4.5,27.3-4.6
						C852.3,677.7,826.7,702.5,785.6,699.8z"/>
					<path fill="#003144" d="M795.9,687.9c-0.1-0.1,12-18.9,13.1-36.4c0.9-17.2,11-26.2,10.8-26.1
						C819.3,624.2,773.4,661.3,795.9,687.9z"/>
					<path fill="#003144" d="M805.2,678c-0.3-0.1,20.4-14.4,39-12.8c17.7,1.4,25.3-1.9,25.5-2C868.7,663.1,841.6,684.8,805.2,678z"
						/>
					<path fill="#003144" d="M816.1,667.6c0-0.1,13.6-17,17.1-33.7c3.2-16.5,13.7-24.3,13.5-24.2
						C846.4,608.7,799.7,640.1,816.1,667.6z"/>
					<path fill="#003144" d="M826,659.1c-0.2-0.1,20.5-11.9,37.2-8.8c15.9,2.9,23.4,0.3,23.6,0.2C885.8,650.4,857.8,669.1,826,659.1
						z"/>
					<path fill="#003144" d="M837.4,650.2c0-0.1,14.7-15.1,20.4-31c5.3-15.7,16-22.4,15.8-22.3C873.4,595.9,826.5,622.2,837.4,650.2
						z"/>
					<path fill="#003144" d="M847.5,642.8c-0.2-0.1,20.4-9.7,35.2-5.3c14.2,4.1,21.5,2.2,21.6,2.1
						C903.5,639.3,874.9,655.3,847.5,642.8z"/>
					<path fill="#003144" d="M859.1,635.2c0-0.1,15.6-13.4,23.1-28.3c7.2-14.8,18-20.5,17.8-20.5C900,585.5,853.2,607.3,859.1,635.2
						z"/>
					<path fill="#003144" d="M869.5,628.9c-0.2-0.1,20-7.7,33.1-2.3c12.5,5.1,19.6,3.7,19.7,3.7C921.5,630,892.6,643.4,869.5,628.9z
						"/>
					<path fill="#003144" d="M881.2,622.5c0-0.1,16.3-11.7,25.4-25.7c8.8-13.8,19.6-18.6,19.5-18.6
						C926.1,577.4,879.8,595.1,881.2,622.5z"/>
					<path fill="#003144" d="M891.6,617.2c-0.2-0.1,19.6-5.9,30.9,0.2c10.9,5.8,17.7,5,17.9,4.9
						C939.7,622.1,910.7,633.1,891.6,617.2z"/>
					<path fill="#003144" d="M968.1,591.2c-44.6-1.6-69,22.5-67.7,22C902,613.4,924.5,612.4,968.1,591.2z"/>
				</g>
				<g>
					<path fill="#003144" d="M735,895.1c-2.9,1.2-5.6,0.4-6-1.6c-5.9-29.4-5.4-58.8,0.4-87.2c0.4-2,2.9-3.7,5.5-3.8
						c2.6-0.2,4.4,1.2,4,3.1c-5.3,27.3-5.4,55.6,0.6,83.8C739.9,891.4,737.9,894,735,895.1z"/>
				</g>
			</g>
			<g>
				<g>
					<path fill="#FFCA28" d="M722.6,781.7c-0.3-0.2-2.3-32.3-16.6-54.3c-14.4-21.7-9.1-39.6-9.3-39.4
						C694.9,686.2,668.1,765.3,722.6,781.7z"/>
					<path fill="#FFCA28" d="M725.5,762.6c-0.5,0,13.1-32.6,38.6-42.9c24-10,30.6-18.3,30.7-18.5
						C793.2,701.6,778.6,743.5,725.5,762.6z"/>
					<path fill="#FFCA28" d="M730,742c-0.2-0.2,2-30.1-8.2-52.5c-10.4-22.1-3.6-38.2-3.8-38C716.7,649.8,683.4,719.5,730,742z"/>
					<path fill="#FFCA28" d="M735,724.8c-0.4,0,15.8-28.4,40-34.8c22.9-6.4,29.9-13.4,30.1-13.7C803.6,676.4,785.1,714.5,735,724.8z
						"/>
					<path fill="#FFCA28" d="M741.6,706.3c-0.2-0.2,5.5-27.8-1.1-50.2c-6.8-22.1,1.2-36.4,1-36.2
						C740.5,618.2,702.5,679.3,741.6,706.3z"/>
					<path fill="#FFCA28" d="M748.2,690.8c-0.4-0.1,17.7-24.6,40.3-27.7c21.5-3.2,28.8-9.2,29-9.4
						C816.2,653.8,794.5,687.9,748.2,690.8z"/>
					<path fill="#FFCA28" d="M756.3,674.4c-0.1-0.2,8.3-25.4,5-47.5c-3.6-21.8,5.3-34.4,5.1-34.3
						C765.7,591.1,724.3,644.2,756.3,674.4z"/>
					<path fill="#FFCA28" d="M764.1,660.7c-0.3-0.1,18.9-21,39.9-21.4c20-0.6,27.4-5.6,27.6-5.7
						C830.4,633.5,806.3,663.8,764.1,660.7z"/>
					<path fill="#FFCA28" d="M773.5,646.1c-0.1-0.2,10.6-23.1,10.1-44.5c-0.7-21.1,8.9-32.3,8.7-32.2
						C791.8,568.1,748,613.8,773.5,646.1z"/>
					<path fill="#FFCA28" d="M782.2,634.1c-0.3-0.1,19.6-17.7,38.9-15.8c18.3,1.6,25.8-2.4,26-2.5
						C846,615.6,820.1,642.2,782.2,634.1z"/>
					<path fill="#FFCA28" d="M792.4,621.4c-0.1-0.2,12.4-20.8,14.5-41.4c1.9-20.3,11.9-30,11.8-30
						C818.3,548.7,773.1,587.7,792.4,621.4z"/>
					<path fill="#FFCA28" d="M801.8,610.9c-0.3-0.1,20-14.7,37.5-11c16.7,3.5,24.1,0.3,24.3,0.2C862.5,599.8,835.3,623,801.8,610.9z
						"/>
					<path fill="#FFCA28" d="M812.6,599.8c0-0.2,13.8-18.7,18.2-38.3c4.1-19.4,14.6-27.8,14.4-27.7
						C845,532.7,798.9,565.6,812.6,599.8z"/>
					<path fill="#FFCA28" d="M822.4,590.8c-0.2-0.1,20.1-12,35.8-6.7c15,5,22.3,2.5,22.5,2.5C879.8,586.2,851.7,606,822.4,590.8z"/>
					<path fill="#FFCA28" d="M833.7,581.3c0-0.1,15-16.6,21.4-35.1c6.1-18.3,16.8-25.5,16.7-25.5C871.6,519.7,825.2,547,833.7,581.3
						z"/>
					<path fill="#FFCA28" d="M843.8,573.6c-0.2-0.1,20-9.6,33.9-3.1c13.3,6.2,20.5,4.4,20.7,4.4
						C897.6,574.5,868.9,591.2,843.8,573.6z"/>
					<path fill="#FFCA28" d="M855.4,565.5c0-0.1,15.8-14.6,24.1-31.9c7.9-17.2,18.8-23.2,18.6-23.2
						C898,509.4,851.6,531.7,855.4,565.5z"/>
					<path fill="#FFCA28" d="M865.7,559c-0.2-0.1,19.7-7.4,32,0.1c11.7,7.1,18.7,6,18.9,6C915.7,564.7,886.7,578.5,865.7,559z"/>
					<path fill="#FFCA28" d="M942.7,526.2c-46.4-1.6-69.5,28.4-68.3,27.8C876,554.2,899.3,552.9,942.7,526.2z"/>
				</g>
				<g>
					<path fill="#FFCA28" d="M731,894.5c-2.8,1.4-5.6,0.5-6.2-1.9c-8.7-34.7-11-69.6-7.8-103.3c0.2-2.4,2.6-4.4,5.2-4.6
						c2.6-0.2,4.5,1.5,4.4,3.7c-2.8,32.6-0.2,66.1,8.5,99.5C735.6,890.2,733.9,893.1,731,894.5z"/>
				</g>
			</g>
		</g>
		<g>
			<g>
				<g>
					<path fill="#003144" d="M995.7,755.2c4.7-15.6,11.1-30.9,19-46c-8.8,14.9-16.1,30.2-21.9,45.9c-19.8,57.7,38.9,51.5,37.2,51.5
						C1028,763.9,1006,756,995.7,755.2z"/>
					<path fill="#003144" d="M1020.1,716.6c7-13.8,15.4-27.3,25.1-40.3c-10.4,12.7-19.7,26-27.7,39.8c-26.3,50.4,25.7,52,24.3,51.9
						C1047.1,728.7,1029.1,718.5,1020.1,716.6z"/>
					<path fill="#003144" d="M1047.4,683.6c8.5-11.8,18-23.2,28.6-34.1c-11.2,10.6-21.5,21.7-30.8,33.3
						c-30.9,43.7,14.4,51.2,13.1,51C1069.5,697.9,1055,686.3,1047.4,683.6z"/>
					<path fill="#003144" d="M1076.8,655.8c9.3-10.4,19.6-20.5,30.9-30c-11.7,9.1-22.7,18.8-32.8,29c-34.1,37.5,4.6,49.6,3.6,49.3
						C1094.1,671.8,1083.1,659.2,1076.8,655.8z"/>
					<path fill="#003144" d="M1107.3,632.6c10.4-9.2,21.7-17.9,33.9-26c-12.5,7.7-24.4,16-35.5,24.9c-36.1,31.9-3.7,47.3-4.6,47
						C1120,649.7,1112.4,636.5,1107.3,632.6z"/>
					<path fill="#003144" d="M1138.2,613.6c10.4-7.7,21.5-15,33.3-21.8c-12.1,6.3-23.7,13.2-34.6,20.5
						c-37.4,26.8-10.8,44.6-11.6,44.2C1146.9,631.1,1142.2,617.8,1138.2,613.6z"/>
					<path fill="#003144" d="M1169.1,598.3c11-6.6,22.6-12.8,34.9-18.3c-12.5,5.1-24.4,10.8-35.8,17c-38.1,22.2-16.9,41.5-17.6,41.2
						C1174.1,615.9,1172.1,602.7,1169.1,598.3z"/>
					<path fill="#003144" d="M1199.8,586.4c10-4.8,20.5-9.2,31.3-13.2c-11,3.5-21.7,7.4-32,11.7c-38.3,18-22.1,38.3-22.7,38
						C1201.2,603.8,1201.8,590.9,1199.8,586.4z"/>
					<path fill="#003144" d="M1061.1,734.5c0.3,0.6,37.7,10,60.4-17.4c0,0-0.2-0.1-0.4-0.3c0.4,0.2,0.9,0.3,1.3,0.5
						c6.4-7.9,13.3-15.4,20.7-22.4c-8,6.7-15.6,13.9-22.8,21.5C1115.1,714.3,1092.5,702.6,1061.1,734.5z"/>
					<path fill="#003144" d="M1080.8,705.1c0.2,0.5,31.6,13.8,56.4-9.7c0,0,0,0,0,0c0.2,0.1,0.4,0.2,0.7,0.2
						c7.3-6.8,15-13.2,23-19.2c-8.5,5.5-16.8,11.6-24.8,18.1C1131.7,691.7,1113.5,678.9,1080.8,705.1z"/>
					<path fill="#003144" d="M1103,679.6c0.1,0.5,25.8,16.6,51.9-3.3c0,0,0-0.1-0.1-0.2c0.2,0.1,0.4,0.2,0.6,0.4
						c7.9-6.1,16.1-11.7,24.7-17c-8.9,4.8-17.7,10-26.1,15.7C1150.4,671.9,1135.9,658.6,1103,679.6z"/>
					<path fill="#003144" d="M1126.8,657.8c0.1,0.4,20.4,18.5,47.2,1.9c0,0,0-0.1-0.1-0.2c0.2,0.1,0.3,0.2,0.5,0.4
						c8.1-4.8,16.3-9.1,24.8-13.1c-8.7,3.5-17.4,7.4-26,11.7C1170.5,654.9,1159.4,641.3,1126.8,657.8z"/>
					<path fill="#003144" d="M1151.7,639.5c0,0.4,15.3,19.7,42.5,6.2c0,0,0,0,0-0.1c0.1,0.1,0.2,0.1,0.3,0.2
						c8.4-4,16.9-7.6,25.6-10.9c-8.9,2.7-17.7,5.9-26.4,9.4C1191.7,640.5,1183.6,626.8,1151.7,639.5z"/>
					<path fill="#003144" d="M1215.1,633.8c0,0,0-0.1-0.1-0.3c0.1,0.1,0.2,0.3,0.3,0.4c7.5-3,15.1-5.8,22.8-8.2
						c-7.8,1.9-15.6,4.1-23.4,6.7c-1.3-4.1-6.9-17.2-37.5-8C1177.2,624.6,1187.8,644.5,1215.1,633.8z"/>
					<path fill="#003144" d="M1236,599.5c9.7-3.2,19.7-6.1,30-8.5c-10.2,2-20.3,4.5-30.1,7.3c-3.9-1.1-28.3-3.7-47.8,19.5
						C1216,617.9,1230.9,603.5,1236,599.5z"/>
					<path fill="#003144" d="M1117.5,740.3c-7.3,8.8-14.1,18.3-20.2,28.4c-6.4-0.6-39-7.6-63.7,37.8c0.6,0.6,49.9-1.9,65.2-37.5
						c0,0-0.1,0-0.1,0c0.5,0,1,0,1.5,0C1105.2,759,1111,749.4,1117.5,740.3z"/>
					<path fill="#003144" d="M1128.8,716.1c-7.8,7.8-15.1,16.2-21.9,25.1c-5.9-1.5-33.2-11.1-62,27.1c0.5,0.6,43.9,4.9,63.5-26.6
						c0,0-0.1-0.1-0.3-0.1c0.5,0.1,1,0.2,1.4,0.3C1115.3,732.8,1121.8,724.2,1128.8,716.1z"/>
				</g>
				<g>
					<path fill="#003144" d="M1034.5,904.4c-2.8,1.1-5.5,0.2-5.9-1.9c-6.7-30.2-6.9-60.4-1.7-89.5c0.4-2,2.7-3.7,5.2-3.9
						c2.5-0.1,4.2,1.4,3.9,3.3c-4.8,28.1-4.2,57.3,2.6,86.4C1039.1,900.9,1037.3,903.4,1034.5,904.4z"/>
				</g>
			</g>
			<g>
				<g>
					<path fill="#FFCA28" d="M981.5,726c3.7-18.9,9-37.6,16.1-55.9c-7.9,18.1-14.3,36.8-19.1,55.8c-15.9,69.5,43.6,62,41.9,62
						C1015.3,736.4,992.2,726.9,981.5,726z"/>
					<path fill="#FFCA28" d="M1003.8,678.9c6.2-16.8,13.9-33.4,22.9-49.3c-9.9,15.6-18.5,32-25.7,48.7c-23.3,61.3,30.1,63,28.7,62.8
						C1032.4,693.6,1013.2,681.3,1003.8,678.9z"/>
					<path fill="#FFCA28" d="M1029.5,638.5c7.9-14.5,17-28.6,27.2-42c-10.9,13.1-20.7,26.8-29.5,41.1
						c-28.7,53.5,18.4,62.4,17.1,62.2C1053.3,656,1037.6,641.9,1029.5,638.5z"/>
					<path fill="#FFCA28" d="M1058,604.2c9-12.9,19-25.4,30-37.2c-11.6,11.4-22.3,23.4-32,36c-32.6,46.2,8.2,60.8,7.1,60.5
						C1076.9,623.8,1064.7,608.4,1058,604.2z"/>
					<path fill="#FFCA28" d="M1088,575.5c10.2-11.4,21.4-22.3,33.5-32.5c-12.6,9.6-24.3,20-35.3,31.1c-35.3,39.5-0.6,58.3-1.6,57.9
						C1102.4,596.4,1093.5,580.3,1088,575.5z"/>
					<path fill="#FFCA28" d="M1118.9,551.7c10.3-9.7,21.5-18.8,33.4-27.3c-12.3,7.9-23.9,16.6-34.8,25.8
						c-37.1,33.4-8.3,55.2-9.2,54.8C1129.1,573.4,1123.3,556.9,1118.9,551.7z"/>
					<path fill="#FFCA28" d="M1150.2,532.5c11.1-8.3,22.8-16.1,35.4-23.1c-12.8,6.5-24.9,13.7-36.4,21.4
						c-38.3,27.8-15,51.7-15.7,51.2C1156.5,554.3,1153.5,537.9,1150.2,532.5z"/>
					<path fill="#FFCA28" d="M1181.5,517.4c10.2-6.1,20.9-11.6,32.1-16.7c-11.4,4.4-22.3,9.4-32.9,14.9
						c-38.9,22.7-20.8,47.8-21.4,47.4C1184,539.1,1183.9,523.1,1181.5,517.4z"/>
					<path fill="#FFCA28" d="M1047.2,700.7c0.4,0.7,39.5,12,61.1-21.4c0,0-0.2-0.1-0.5-0.3c0.5,0.2,0.9,0.4,1.4,0.6
						c6.1-9.6,12.8-18.8,19.9-27.5c-7.8,8.2-15.2,17.1-22.2,26.4C1101.5,675.7,1077.4,661.6,1047.2,700.7z"/>
					<path fill="#FFCA28" d="M1065.5,664.7c0.2,0.6,33.6,16.8,57.6-12.1c0,0,0,0,0,0c0.2,0.1,0.5,0.2,0.7,0.3
						c7.1-8.4,14.7-16.3,22.7-23.7c-8.5,6.8-16.7,14.3-24.6,22.3C1117.2,648.1,1097.5,632.5,1065.5,664.7z"/>
					<path fill="#FFCA28" d="M1086.7,633.4c0.1,0.6,27.8,20.2,53.6-4.3c0,0-0.1-0.1-0.1-0.2c0.2,0.1,0.4,0.3,0.6,0.4
						c7.8-7.5,16-14.5,24.6-21c-9,5.9-17.7,12.4-26.2,19.5C1135.3,623.7,1119.4,607.4,1086.7,633.4z"/>
					<path fill="#FFCA28" d="M1109.9,606.5c0.1,0.5,22.3,22.6,49.2,2.1c0,0,0-0.1-0.1-0.2c0.2,0.2,0.3,0.3,0.5,0.5
						c8.1-5.9,16.4-11.4,25-16.3c-8.9,4.4-17.7,9.2-26.3,14.6C1155.1,602.7,1142.7,585.9,1109.9,606.5z"/>
					<path fill="#FFCA28" d="M1134.6,583.7c0,0.5,17.1,24.2,44.6,7.4c0,0,0,0,0-0.1c0.1,0.1,0.2,0.2,0.3,0.2
						c8.5-5,17.2-9.6,26.1-13.6c-9.1,3.5-18.1,7.4-27,11.8C1176.3,584.7,1167,567.8,1134.6,583.7z"/>
					<path fill="#FFCA28" d="M1200.3,576.3c0,0,0-0.2-0.1-0.4c0.1,0.2,0.2,0.3,0.3,0.5c7.6-3.8,15.4-7.3,23.4-10.4
						c-8.1,2.4-16.1,5.2-24,8.4c-1.5-5-8.2-21.4-39.6-9.7C1160.2,565.1,1172.5,589.7,1200.3,576.3z"/>
					<path fill="#FFCA28" d="M1220.2,533.5c10-4.1,20.3-7.7,31-10.8c-10.6,2.6-21,5.7-31.2,9.4c-4.1-1.4-29.8-4.4-48.8,24.5
						C1200.3,556.5,1215,538.6,1220.2,533.5z"/>
					<path fill="#FFCA28" d="M1105.6,707.4c-6.9,10.8-13.3,22.3-18.9,34.5c-6.6-0.7-40.6-9.1-62.7,45.8c0.7,0.8,51-2.3,64.3-45.4
						c0,0-0.1,0-0.2,0c0.5,0,1,0,1.6,0C1094.2,730.1,1099.6,718.5,1105.6,707.4z"/>
					<path fill="#FFCA28" d="M1115.7,677.9c-7.5,9.6-14.5,19.8-21,30.6c-6.2-1.8-34.9-13.3-61.9,33.1c0.5,0.7,45.4,5.8,63.4-32.4
						c0,0-0.1-0.1-0.4-0.2c0.5,0.1,1,0.2,1.5,0.3C1102.9,698.4,1109,687.8,1115.7,677.9z"/>
				</g>
				<g>
					<path fill="#FFCA28" d="M1031.9,904.3c-2.7,1.2-5.5,0.2-6.1-2.3c-8.9-35.8-11.3-71.8-8-106.6c0.2-2.4,2.5-4.5,5.1-4.6
						c2.5-0.1,4.4,1.6,4.2,4c-2.9,33.7-0.2,68.4,8.7,103C1036.3,900.1,1034.6,903,1031.9,904.3z"/>
				</g>
			</g>
		</g>
		<g>
			<g>
				<path fill="#003144" d="M152.7,377c-0.6-0.2,9.3-33.5,4.4-38.3c-6.5-4.2-38.4-26.3-37.8-26.8c-0.8-0.3-17.3,43.5-3.9,56.9
					C128.1,382,152.9,376.7,152.7,377z"/>
				<path fill="#003144" d="M177.8,340.6c-9.7,2.9-20.5,36-19.8,36.2c-0.1,0.3,22.8,1.5,41.9-9.1c18.3-10.5,31.6-36.8,32.1-36.7
					C232.4,330.3,187.2,336.6,177.8,340.6z"/>
				<path fill="#003144" d="M168.3,332c-0.5-0.2,14.4-30.4,11-35.7c-4.8-4.9-28.6-30.6-28-31c-0.6-0.4-23.1,38.9-13.8,53.4
					C146,333.1,168.5,331.8,168.3,332z"/>
				<path fill="#003144" d="M196.9,301.1c-8.9,1.4-24.6,31.3-24,31.4c-0.1,0.2,19.5,4.8,38-2.4c17.8-7.3,34.6-30.7,35-30.6
					C246.3,299.1,205.8,298.7,196.9,301.1z"/>
				<path fill="#003144" d="M190.2,291.6c-0.4-0.2,18.2-27,16.3-32.7c-3.3-5.4-19.2-33.4-18.6-33.7c-0.5-0.4-27.4,34.1-22,49.3
					C170.6,289.4,190.4,291.4,190.2,291.6z"/>
				<path fill="#003144" d="M221,265.9c-8.1,0.2-27.3,26.6-26.9,26.8c-0.1,0.2,16,7.4,33.5,3.1c16.9-4.5,36.1-25,36.5-24.8
					C264.6,270.7,229.2,264.9,221,265.9z"/>
				<path fill="#003144" d="M217,255.8c-0.3-0.2,21.1-23.7,20.5-29.4c-1.8-5.7-10.5-34.9-9.9-35.1c-0.4-0.4-30.5,29.4-28.7,44.7
					C200.3,251,217.2,255.7,217,255.8z"/>
				<path fill="#003144" d="M248.8,235.1c-7.2-0.9-29.1,22.1-28.7,22.4c-0.2,0.2,12.6,9.4,28.7,7.6c15.6-2,36.7-19.6,37-19.4
					C286.3,245.3,256.2,235.2,248.8,235.1z"/>
				<path fill="#003144" d="M247.3,224.8c-0.3-0.3,23.2-20.3,23.9-26c-0.5-5.8-2.5-35.3-1.9-35.4c-0.3-0.4-32.8,24.8-34,39.8
					C233.5,217.9,247.5,224.7,247.3,224.8z"/>
				<path fill="#003144" d="M279.4,208.7c-6.2-1.7-30,17.9-29.7,18.1c-0.2,0.1,9.2,10.7,23.8,11c14.1,0,36.4-14.6,36.7-14.4
					C310.7,223.2,286,209.7,279.4,208.7z"/>
				<path fill="#003144" d="M280.1,198.4c-0.2-0.3,24.7-17,26.4-22.5c0.7-5.7,4.9-34.7,5.4-34.8c-0.3-0.4-34.3,20.4-38.3,34.8
					C269.2,190.1,280.3,198.4,280.1,198.4z"/>
				<path fill="#003144" d="M311.9,186.6c-5.3-2.3-30.3,13.9-30.1,14.2c-0.2,0.1,6,11.6,19,13.6c12.5,1.7,35.6-10.1,35.8-9.9
					C337,204.3,317.6,188.3,311.9,186.6z"/>
				<path fill="#003144" d="M343,157.6c1.8-5.5,11.6-33.4,12.1-33.4c-0.2-0.4-35.3,16.1-41.7,29.7c-6.8,13.3,1.4,22.7,1.2,22.7
					C314.4,176.3,340.3,162.8,343,157.6z"/>
				<path fill="#003144" d="M345.7,168.6c-4.3-2.8-30.2,10.2-30,10.5c-0.2,0.1,3,12,14.2,15.5c10.9,3.1,34.3-6.1,34.5-5.9
					C364.9,188.6,350.5,170.9,345.7,168.6z"/>
				<path fill="#003144" d="M369.8,139.9c-18.5,4.3-32,26.1-31.5,26c0.4-0.1,19.1,6.3,33.4-1.1c13.9-7.7,39.2-24.9,39.7-24.7
					C411.8,139.9,387.7,135.4,369.8,139.9z"/>
				<path fill="#003144" d="M158.4,383.3c0.4-2-1.2-3.6-3.8-3.4c-2.5,0.1-5,1.9-5.5,4.1c-6.7,30.3-7.8,61.3-2.6,92.1
					c0.4,2.1,3,3,5.8,1.9c2.8-1.1,4.8-3.6,4.4-5.7C151.4,442.6,152.2,412.6,158.4,383.3z"/>
			</g>
			<g>
				<g>
					<path fill="#FFCA28" d="M141.9,360c-0.7-0.2,5.6-38,0.1-43.5c-7-4.7-41.7-29.8-41.1-30.4c-0.8-0.4-12.8,49.2,2.3,64.4
						C117.5,365.7,142.1,359.7,141.9,360z"/>
					<path fill="#FFCA28" d="M147.2,359.8c-0.7-0.1,6.5-37.8,15.9-41c9.1-4.5,53.8-11.4,53.5-10.7c-0.5-0.1-10.8,29.6-28,41.5
						C170.4,361.5,147.1,360.1,147.2,359.8z"/>
					<path fill="#FFCA28" d="M152.5,309c-0.5-0.2,11-34.1,7-40.2c-5.4-5.5-32.1-34.3-31.6-34.8c-0.7-0.4-18.9,43.4-8,59.8
						C130.1,310.2,152.7,308.8,152.5,309z"/>
					<path fill="#FFCA28" d="M157.2,309.7c-0.6-0.2,11.7-33.8,20.5-35.3c8.7-2.6,49.3-2.1,48.9-1.5c-0.4-0.2-14.4,26.1-31.5,34.3
						C177.3,315.2,157,310,157.2,309.7z"/>
					<path fill="#FFCA28" d="M169.9,263.6c-0.5-0.3,15.1-30.1,12.5-36.4c-3.9-6-23.1-37.1-22.5-37.5c-0.6-0.4-23.5,37.8-16.4,54.7
						C150,261.1,170.1,263.5,169.9,263.6z"/>
					<path fill="#FFCA28" d="M173.9,265c-0.5-0.2,15.7-29.7,23.8-29.8c8.1-1.1,44.1,5.5,43.7,5.9c-0.4-0.2-17.1,22.6-33.5,27.6
						C190.8,273.4,173.8,265.2,173.9,265z"/>
					<path fill="#FFCA28" d="M192.5,223.9c-0.4-0.3,18.3-26.1,17-32.5c-2.5-6.3-14.6-38.5-14-38.7c-0.5-0.4-27,32.3-23.3,49.1
						C175.3,218.4,192.7,223.7,192.5,223.9z"/>
					<path fill="#FFCA28" d="M195.9,225.7c-0.4-0.3,18.7-25.7,26-24.7c7.4,0.1,38.5,11.5,38.1,11.8c-0.3-0.2-19.1,19.2-34.5,21.4
						C209.5,236.2,195.7,225.9,195.9,225.7z"/>
					<path fill="#FFCA28" d="M219,189.6c-0.3-0.3,20.6-22.2,20.6-28.5c-1.2-6.3-6.7-38.6-6.1-38.8c-0.4-0.4-29.5,27-29,43.4
						C204.5,182,219.2,189.5,219,189.6z"/>
					<path fill="#FFCA28" d="M221.7,191.9c-0.3-0.3,20.9-21.7,27.3-19.8c6.6,1.2,32.8,16.1,32.4,16.4c-0.3-0.2-20.6,15.9-34.6,15.8
						C232.2,203.8,221.6,192,221.7,191.9z"/>
					<path fill="#FFCA28" d="M248.4,160.8c-0.3-0.3,22.3-18.5,23.4-24.5c0-6.2,0.5-37.8,1.1-37.9c-0.3-0.4-31.4,21.9-33.6,37.7
						C236.7,151.5,248.6,160.7,248.4,160.8z"/>
					<path fill="#FFCA28" d="M250.5,163.3c-0.3-0.3,22.6-17.9,28-15.4c5.8,2,27.1,19.6,26.6,19.8c-0.2-0.2-21.5,12.7-34.2,10.7
						C257.9,176.1,250.3,163.4,250.5,163.3z"/>
					<path fill="#FFCA28" d="M279.9,137.1c-0.2-0.3,23.6-14.9,25.6-20.6c1.1-6,7.1-36.2,7.6-36.1c-0.3-0.4-32.7,17.2-37.3,31.9
						C270.8,126.7,280.1,137,279.9,137.1z"/>
					<path fill="#FFCA28" d="M281.3,139.7c-0.2-0.3,23.7-14.4,28.3-11.2c5,2.6,21.5,22,21,22.1c-0.2-0.2-22.1,9.7-33.3,6.2
						C285.9,153,281.2,139.8,281.3,139.7z"/>
					<path fill="#FFCA28" d="M334.8,124.5c12.7-8.3,35.3-26.8,35.8-26.6c0.3-0.1-23.9-5.2-40.9-0.5c-17.6,4.5-28.2,28.1-27.7,28.1
						C302.4,125.4,321.6,132.5,334.8,124.5z"/>
				</g>
				<g>
					<path fill="#FFCA28" d="M153.1,476.3c-2.8,1.3-5.5,0.3-6.1-2.2c-8.9-35.7-11.3-71.5-7.9-106.1c0.2-2.4,2.5-4.5,5.1-4.6
						c2.5-0.1,4.4,1.6,4.2,3.9c-2.9,33.5-0.3,68.1,8.6,102.4C157.6,472.1,155.9,475,153.1,476.3z"/>
				</g>
			</g>
		</g>
		<g>
			<g>
				<path fill="#003144" d="M443.5,330.9c3.3-4.8,7.6-9.9,12.2-14.6c-8.8-9.9-20.6-27.5-20.4-27.6c-1.2-0.8-34.1,55.4-24,75.6
					c7,16.1,25.7,14.6,32.7,13.7C438.3,370.8,430.3,350,443.5,330.9z"/>
				<path fill="#003144" d="M491,322.8c-0.5,4.8-1.1,9.4-2.2,13.7c-3.8,15.9-23.7,32.6-33.4,41c6.8,0.5,24.9-1.1,40.9-13
					c18.2-14.5,34.9-49.5,35.9-49.5C532.3,314.8,507.6,318.1,491,322.8z"/>
				<path fill="#003144" d="M459.3,312.6c3.2-3,6.4-5.9,9.5-8.5c-0.1-8.8,2.9-20.4,12-29.5c3.6-3.6,8.1-7.3,12.7-10.7
					c-4.8-10.4-10.5-28.1-10.3-28.2c-0.7-0.7-38.1,42.7-34.9,61.8C449.3,305.7,454.3,310.1,459.3,312.6z"/>
				<path fill="#003144" d="M520,276.1c-1.5,4.1-3.1,8.2-4.8,11.8c-4.4,8.8-13.9,16.1-22.8,21.9c-0.3,3-0.6,6.1-0.9,9.3
					c6.4,0.1,14.5-1.1,22.8-5.1c17.7-9.1,39.4-37.8,40.2-37.6C554.5,276.3,534.1,274.9,520,276.1z"/>
				<path fill="#003144" d="M494.3,289.5c0,0.6-0.9,7.9-1.7,17.1c8-5.2,16.2-11.6,20-19.1c6.9-14.8,14.1-40.1,14.6-40.3
					c0.2-0.3-29.5,13-44.6,28.7c-7.5,7.6-10.2,17.5-10.3,25.4c9.8-7.8,17.7-12.7,18.3-13.1c1.4-0.9,2.8-1.7,4.2-2.6
					C494.6,286.9,494.4,288.2,494.3,289.5z"/>
				<path fill="#003144" d="M497.3,261.3c3.1-2.1,6.3-4.1,9.4-5.9c1.8-7.9,6.6-17.8,15.7-24.5c3.6-2.7,8-5.2,12.4-7.5
					c-1.7-10.3-2.7-27.4-2.5-27.5c-0.4-0.6-39,32.5-40.4,49.9C490.8,253.3,493.8,258.2,497.3,261.3z"/>
				<path fill="#003144" d="M546.9,248.8c-5.5,7.3-14.6,12.2-23,15.9c-0.9,2.6-1.8,5.4-2.8,8.2c5.1,1.2,11.7,1.6,19.2-0.5
					c16.2-5,40.3-27.9,40.8-27.7c0.1-0.1-16.1-4.5-27.8-5.8C551.3,242.5,549.1,245.9,546.9,248.8z"/>
				<path fill="#003144" d="M545,248.1c8.8-12.3,19.9-34.5,20.4-34.6c0.2-0.2-26.6,7.3-41.9,18.9c-7.6,5.6-11.8,14-13.6,21.1
					c9.4-5.3,16.8-8.3,17.3-8.6c1.3-0.6,2.6-1.1,3.9-1.6c-0.4,1.1-0.8,2.3-1.2,3.4c-0.2,0.5-2.4,7-5.1,15.1
					C532.4,258.6,540.3,254.3,545,248.1z"/>
				<path fill="#003144" d="M547,217.7c3.1-6.9,9-15.3,17.8-20.1c3.5-1.9,7.5-3.6,11.6-5.1c0.8-9.8,3.4-25.9,3.5-26
					c-0.3-0.5-38.2,24.4-42.8,40c-2.3,6.7-1,11.6,1.2,15C541.3,220.2,544.2,218.9,547,217.7z"/>
				<path fill="#003144" d="M581,218c-6,5.9-14.5,9.1-22.1,11c-1.3,2.3-2.6,4.7-4,7c3.8,1.9,9.1,3.4,15.6,2.6
					c14.2-2,39.1-19.8,39.5-19.6c0.1,0-12.4-6.5-21.7-9.4C585.9,212.8,583.5,215.6,581,218z"/>
				<path fill="#003144" d="M579.6,217c9.8-10.1,23.6-29.2,23.9-29.2c0.2-0.2-23.4,3.1-38.2,11.5c-7.3,4-12.4,11.1-15.3,17.3
					c8.7-3.3,15.3-5,15.8-5.2c1.2-0.3,2.3-0.6,3.5-0.9c-0.6,1-1.1,2-1.7,3c-0.2,0.5-3.4,6.1-7.3,13.1
					C567.1,224.8,574.5,222.1,579.6,217z"/>
				<path fill="#003144" d="M587.6,189.1c3.9-6,10.5-13,18.7-16.3c3.3-1.3,7-2.4,10.7-3.2c2.6-9.2,8-24,8.1-24
					c-0.2-0.4-36.5,18-43.4,31.7c-3.3,5.9-3.1,10.7-2.1,14.2C582.4,190.6,585,189.8,587.6,189.1z"/>
				<path fill="#003144" d="M623.5,187.4c-2.7,2.5-5.3,4.9-7.9,6.8c-6.3,4.8-13.9,6.5-20.6,7.3c-1.5,1.9-3.1,4-4.7,6
					c2.7,2.4,6.8,4.5,12.3,4.7c12.2,0.2,36.9-13.3,37.2-13.1C639.9,199.1,630.6,191.4,623.5,187.4z"/>
				<path fill="#003144" d="M640.6,168.6c0.2-0.1-20.3,0.1-34.2,5.9c-6.8,2.8-12.5,8.6-16.2,14c7.8-1.8,13.6-2.5,14.1-2.6
					c1-0.1,2.1-0.2,3.1-0.4c-0.7,0.9-1.3,1.7-2,2.6c-0.3,0.4-4.1,5.2-8.8,11.3c6-0.7,12.6-2.3,17.9-6.3
					C624.9,185,640.4,168.6,640.6,168.6z"/>
				<path fill="#003144" d="M619.9,169c2.4-0.5,4.8-0.9,7.1-1.1c4.5-5.2,11.4-10.9,19-13.1c3-0.9,6.4-1.4,9.7-1.8
					c4.1-8.4,11.5-21.9,11.6-21.9c-0.1-0.4-34.4,12.8-42.8,24.8C620.6,161.1,619.7,165.6,619.9,169z"/>
				<path fill="#003144" d="M657.6,170.6c-2.8,2-5.5,4-8,5.5c-6.3,3.8-13.1,4.4-18.8,4.3c-1.7,1.6-3.4,3.3-5.2,5
					c1.8,2.6,4.8,5.1,9.4,6c10.2,1.8,34.1-8.1,34.4-7.9C669.4,183.6,662.9,175.2,657.6,170.6z"/>
				<path fill="#003144" d="M649,174.9c10.3-6.4,26.9-20.3,27.1-20.2c0.2-0.1-17.4-2.2-30.3,1.6c-6.3,1.8-12.3,6.6-16.4,11.2
					c6.9-0.7,12-0.7,12.4-0.7c0.9,0,1.8,0,2.7,0c-0.7,0.7-1.5,1.5-2.2,2.2c-0.3,0.3-4.5,4.4-9.7,9.5
					C637.7,178.7,643.7,178.1,649,174.9z"/>
				<path fill="#003144" d="M658.3,152.7c2.2-0.2,4.3-0.3,6.3-0.3c4.9-4.4,11.9-9.1,18.9-10.3c2.8-0.5,5.8-0.7,8.7-0.7
					c5.1-7.6,14.3-19.7,14.3-19.7c-0.1-0.3-32.2,8.7-41.7,19.1C660.4,145.3,658.8,149.5,658.3,152.7z"/>
				<path fill="#003144" d="M682.3,162.8c-6.2,2.9-12.2,2.8-17.1,2c-1.8,1.4-3.6,2.8-5.4,4.2c1,2.7,3,5.4,6.8,6.8
					c8.4,2.9,31.3-4.1,31.4-3.9c0.1,0-4-8.6-7.7-13.5C687.6,160.1,684.8,161.7,682.3,162.8z"/>
				<path fill="#003144" d="M682.9,143.6c-5.8,1.1-11.8,5-16.3,8.9c6,0.1,10.4,0.7,10.7,0.7c0.8,0.1,1.5,0.2,2.3,0.3
					c-0.8,0.6-1.6,1.2-2.3,1.8c-0.3,0.3-4.7,3.7-10.2,8c4.4,0.7,9.7,0.7,14.9-1.7c10.2-5,27.3-16.6,27.5-16.6
					C709.7,145,694.7,141.3,682.9,143.6z"/>
				<path fill="#003144" d="M446,331.9c-15.3,22.4,3.1,46.7,3.6,46c0.3-0.7,31.7-23.1,36.1-41.3c3.5-17.5,4.9-45.8,5.5-46.1
					C491.4,290.1,459.5,311.1,446,331.9z"/>
				<path fill="#003144" d="M452.6,384c0.5-2-1.2-3.5-3.8-3.4c-2.6,0.1-5.1,1.9-5.7,4c-7.6,30.1-9.6,60.9-5.3,91.5
					c0.3,2.1,2.9,2.9,5.8,1.8c2.9-1.1,5-3.7,4.7-5.7C443.9,442.8,445.6,413,452.6,384z"/>
			</g>
			<g>
				<g>
					<path fill="#FFCA28" d="M423.3,308.7c2.6-5.4,6.2-11.1,10.1-16.4c-10.2-11.2-24.3-30.8-24.1-30.9c-1.3-1-26.4,62-13.5,84.9
						c9.2,18.3,27.8,16.6,34.6,15.6C423.7,353.7,412.8,330.2,423.3,308.7z"/>
					<path fill="#FFCA28" d="M469.5,299.8c0.2,5.3,0.2,10.6-0.2,15.3c-1.5,17.9-19,36.7-27.5,46.2c6.9,0.6,24.7-1.2,39-14.6
						c16-16.4,27.5-55.6,28.5-55.5C509.4,291,485.3,294.5,469.5,299.8z"/>
					<path fill="#FFCA28" d="M444.8,278.7c-1.4-9.8,0-22.7,7.7-32.8c3.1-4,7-8.1,11.1-11.8c-6.2-11.6-14.4-31.2-14.2-31.2
						c-0.8-0.8-31.8,47.2-25.9,68.4c2,9.2,7.6,14.2,13,17C439.2,284.8,442,281.6,444.8,278.7z"/>
					<path fill="#FFCA28" d="M491.5,247.8c-0.9,4.6-1.8,9.1-3.1,13c-3.1,9.8-11.4,17.9-19.5,24.4c0.2,3.3,0.3,6.8,0.5,10.4
						c6.4,0.1,14.2-1.2,21.9-5.6c16.3-10.2,33.5-41.9,34.2-41.7C525.6,248.2,505.3,246.6,491.5,247.8z"/>
					<path fill="#FFCA28" d="M464.1,261.1c1.3-1,2.5-1.9,3.8-2.9c0,1.4,0.1,2.9,0.1,4.3c0,0.6,0.2,8.8,0.7,19.1
						c7.2-5.8,14.4-12.8,17.1-21.2c4.6-16.4,8.1-44.4,8.6-44.6c0.2-0.4-27.3,14.2-40,31.6c-6.4,8.4-7.7,19.4-6.7,28.2
						C456.3,267,463.5,261.5,464.1,261.1z"/>
					<path fill="#FFCA28" d="M475.3,224.8c0.6-8.7,4-19.6,12-26.9c3.2-2.9,7.1-5.7,11.1-8.2c-3.1-11.3-6.6-30.1-6.5-30.1
						c-0.5-0.7-33.7,35.5-32.6,54.7c0.1,8.3,3.7,13.7,7.6,17.1C469.7,228.9,472.5,226.7,475.3,224.8z"/>
					<path fill="#FFCA28" d="M519,206.8c-1.5,3.9-3.1,7.7-4.9,10.9c-4.4,8-12.6,13.4-20.4,17.4c-0.5,2.9-1,6-1.5,9
						c5.2,1.4,11.8,1.8,18.9-0.5c15.3-5.5,35.6-30.6,36.1-30.4C547.3,213.3,530.6,208.3,519,206.8z"/>
					<path fill="#FFCA28" d="M494.1,213.3c1.2-0.6,2.4-1.2,3.6-1.8c-0.2,1.3-0.5,2.5-0.7,3.8c-0.1,0.6-1.4,7.7-2.8,16.7
						c7-3.6,14.1-8.3,17.9-15.1c6.8-13.5,14.5-37.8,14.9-37.9c0.2-0.3-25,7.9-38.4,20.6c-6.7,6.1-9.6,15.4-10.4,23.2
						C486.8,217,493.6,213.6,494.1,213.3z"/>
					<path fill="#FFCA28" d="M509.6,183.5c2-7.6,6.6-16.7,14.5-21.9c3.1-2.1,6.9-3.9,10.6-5.5c-0.7-10.7-0.5-28.2-0.4-28.3
						c-0.3-0.6-33.8,26.3-36.1,43.3c-1.3,7.3,0.7,12.7,3.3,16.5C504.3,186.1,507,184.7,509.6,183.5z"/>
					<path fill="#FFCA28" d="M549.1,175c-2,3.3-4,6.4-6,9c-5,6.5-12.9,9.9-20,12c-0.9,2.5-1.9,5.1-2.9,7.7c4,2.2,9.4,3.7,15.7,3
						c13.7-2.1,35.4-21.5,35.9-21.3C571.9,185.4,558.6,178.2,549.1,175z"/>
					<path fill="#FFCA28" d="M527.2,176.7c1.1-0.3,2.2-0.7,3.3-1c-0.4,1.1-0.8,2.2-1.2,3.3c-0.2,0.5-2.5,6.7-5.3,14.4
						c6.4-2,13.2-4.9,17.5-10.4c8.1-11,18.7-31.8,19.1-31.8c0.2-0.2-22.4,3.3-35.7,12.3c-6.6,4.4-10.6,12-12.5,18.8
						C520.5,178.6,526.7,176.8,527.2,176.7z"/>
					<path fill="#FFCA28" d="M545.2,152.5c3-6.6,8.3-14.1,15.9-17.6c3-1.4,6.5-2.6,9.9-3.5c1.2-9.9,4.2-26,4.3-26
						c-0.2-0.5-32.9,19.2-37.6,34.1c-2.3,6.4-1.5,11.6,0.1,15.4C540.3,154,542.8,153.1,545.2,152.5z"/>
					<path fill="#FFCA28" d="M580.1,150.8c-2.2,2.7-4.5,5.3-6.6,7.3c-5.4,5.2-12.6,7-19,7.8c-1.2,2.1-2.5,4.3-3.7,6.5
						c3,2.6,7.3,4.9,12.8,5.2c12,0.3,34.1-14.3,34.4-14.1C597.9,163.6,587.7,155.2,580.1,150.8z"/>
					<path fill="#FFCA28" d="M561.2,149c1-0.1,2-0.3,3-0.4c-0.5,0.9-1.1,1.9-1.6,2.8c-0.2,0.4-3.2,5.7-6.9,12.2
						c5.7-0.8,12-2.4,16.6-6.8c8.8-8.8,21.4-26.5,21.7-26.5c0.2-0.1-19.8-0.1-32.5,6.1c-6.3,3-10.9,9.3-13.7,15.2
						C555.1,149.8,560.7,149.1,561.2,149z"/>
					<path fill="#FFCA28" d="M580.5,129.5c3.6-5.6,9.4-11.8,16.5-14c2.8-0.9,6-1.5,9.2-1.9c2.7-9,7.8-23.6,7.9-23.6
						c-0.2-0.4-31.5,13.6-37.9,26.5c-3,5.6-3.2,10.4-2.5,14.2C576.1,130.2,578.4,129.8,580.5,129.5z"/>
					<path fill="#FFCA28" d="M610.9,132.8c-2.4,2.2-4.8,4.3-7,5.9c-5.5,4-12.1,4.7-17.7,4.6c-1.4,1.8-2.8,3.6-4.3,5.4
						c2.2,2.8,5.4,5.6,10.1,6.6c10.2,2.1,32.1-8.6,32.3-8.4C624.3,146.9,616.7,137.8,610.9,132.8z"/>
					<path fill="#FFCA28" d="M594.8,128.6c0.9,0,1.7,0,2.6,0.1c-0.6,0.8-1.2,1.6-1.8,2.4c-0.3,0.4-3.7,4.8-8,10.3
						c5.1,0.1,10.8-0.5,15.5-3.9c9.1-6.9,23-21.8,23.3-21.8c0.2-0.1-17.3-2.5-29.3,1.6c-5.9,1.9-10.9,7.1-14.3,12.1
						C589.5,128.5,594.4,128.6,594.8,128.6z"/>
					<path fill="#FFCA28" d="M614.8,113.1c4.1-4.7,10.1-9.7,16.7-11c2.6-0.5,5.5-0.7,8.4-0.7c3.8-8.1,10.7-21.1,10.8-21.1
						c-0.1-0.3-29.9,9.2-37.5,20.3c-3.5,4.8-4.5,9.3-4.5,12.8C610.8,113.2,612.8,113.1,614.8,113.1z"/>
					<path fill="#FFCA28" d="M640.9,119.8c-2.5,1.8-4.9,3.4-7.1,4.7c-5.6,3.1-11.4,2.9-16.3,2.1c-1.5,1.5-3.1,3-4.7,4.5
						c1.4,2.9,3.8,5.9,7.7,7.4c8.6,3.2,29.8-4.2,30-4C650.5,134.5,645.2,125.1,640.9,119.8z"/>
					<path fill="#FFCA28" d="M627.4,114c0.8,0.1,1.5,0.2,2.3,0.4c-0.7,0.7-1.3,1.3-2,2c-0.3,0.3-4,4-8.7,8.6
						c4.4,0.7,9.5,0.8,14.2-1.8c9.1-5.3,23.9-17.8,24.2-17.7c0.1,0-15-4.1-26.1-1.8c-5.5,1.1-10.7,5.3-14.4,9.5
						C622.7,113.3,627,113.9,627.4,114z"/>
					<path fill="#FFCA28" d="M466.2,315.3c1-19.6-1.7-51.3-1.1-51.6c0.2-0.5-28.6,22.8-39.1,46.1c-12.2,25.2,9.6,52.8,10.1,52
						C436.2,361,464.4,335.7,466.2,315.3z"/>
				</g>
				<g>
					<path fill="#FFCA28" d="M444.5,476.3c-2.8,1.3-5.6,0.4-6.2-2.1c-8.8-35.3-11.1-70.6-7.7-104.9c0.2-2.4,2.5-4.4,5.1-4.6
						c2.6-0.2,4.5,1.6,4.3,3.9c-3,33.1-0.4,67.2,8.4,101.1C449,472,447.2,475,444.5,476.3z"/>
				</g>
			</g>
		</g>
		<g>
			<g>
				<path fill="#003144" d="M914.8,173.9c-0.1-0.5,33.6-15.1,28.9-35.9c0,0,0,0,0,0c-0.4,0,17.4-17.4,33.1-17.7
					c0.5,0-15.2-1.7-34.8,17.7c0,0,0,0,0,0C902.1,153.5,914.6,173.5,914.8,173.9z"/>
				<path fill="#003144" d="M914.8,173.9C914.8,173.9,914.8,174,914.8,173.9C914.8,174,914.8,174,914.8,173.9z"/>
				<path fill="#003144" d="M882.4,192.9c-0.2-0.6,34.6-19.5,25.3-40.1c0,0,0,0,0,0c-0.5,0,16.1-19.7,33.5-21.6
					c0.5,0-17.2-0.2-35.3,21.8c0,0,0,0,0,0C864,173.4,882.1,192.5,882.4,192.9z"/>
				<path fill="#003144" d="M882.4,192.9C882.4,192.9,882.4,192.9,882.4,192.9C882.4,192.9,882.4,192.9,882.4,192.9z"/>
				<path fill="#003144" d="M849.6,216.6C849.6,216.6,849.6,216.6,849.6,216.6C849.6,216.6,849.6,216.6,849.6,216.6z"/>
				<path fill="#003144" d="M849.6,216.6c-0.4-0.5,35.2-24.5,20.5-44.4c0,0,0,0,0,0c-0.5,0.1,14.3-22.2,33.5-26.1
					c0.6-0.1-19.4,1.7-35.5,26.6c0,0,0,0,0.1,0C824.6,199,849.2,216.3,849.6,216.6z"/>
				<path fill="#003144" d="M817.2,245.8c-0.6-0.6,35-30.5,14.2-48.7c0,0,0,0,0,0c-0.6,0.2,11.8-24.8,32.8-31.3
					c0.7-0.2-21.7,4.2-35,32c0,0,0,0,0.1,0C783.7,232.1,818,246.2,817.2,245.8z"/>
				<path fill="#003144" d="M786.2,281.3c-0.8-0.6,33.5-37.3,5.8-52.8c0,0,0,0,0,0c-0.7,0.3,8.4-27.5,31.2-37.2
					c0.8-0.3-24.1,7.4-33.6,38.2c0,0,0,0,0.1,0C744.4,272.7,787.3,281.7,786.2,281.3z"/>
				<path fill="#003144" d="M758.6,324.1c-1.2-0.6,30.1-45.1-5.3-56.4c0,0,0,0,0,0c-0.7,0.4,3.8-30.2,28.1-43.8
					c0.9-0.4-26.4,11.5-30.7,45.4c0,0,0,0,0.1,0C707.6,322.7,760,324.4,758.6,324.1z"/>
				<path fill="#003144" d="M737,374.9c-1.7-0.6,23.7-53.8-20.1-58.9c0,0,0,0,0,0c-0.8,0.6-2.4-32.7,23-51.3
					c1-0.6-28.3,16.7-25.6,53.4c0,0,0,0,0.1-0.1C676.5,383.7,738.9,375.1,737,374.9z"/>
				<path fill="#003144" d="M976,176.7c0.1-0.1,0.2-0.1,0.3-0.2C976.2,176.5,976.1,176.6,976,176.7z"/>
				<path fill="#003144" d="M950.9,180.8C950.9,180.8,950.9,180.8,950.9,180.8c-1.6-23-35.9-5.7-35.5-5.3c0.1,0.3,5.4,22.1,34.5,6.4
					c0,0,0,0,0,0c15.8,3.5,24.5-3.9,26.1-5.2C965.5,184.5,951.3,180.7,950.9,180.8z"/>
				<path fill="#003144" d="M951.1,188.7c0.1-0.1,0.2-0.2,0.3-0.2C951.3,188.5,951.2,188.6,951.1,188.7z"/>
				<path fill="#003144" d="M924.3,195.6C924.2,195.6,924.2,195.6,924.3,195.6c-6.3-23.4-41.3-1.6-40.9-1.2
					c0.1,0.4,10.6,21.8,39.9,2.4c0,0,0,0,0,0c18.1,1.8,26.2-6.6,27.8-8.1C941.1,197.8,924.6,195.5,924.3,195.6z"/>
				<path fill="#003144" d="M897.5,213.8C897.5,213.8,897.5,213.8,897.5,213.8c-11.8-23.2-47,3.7-46.4,4.2
					c0.2,0.4,16.8,20.8,45.6-2.8c0,0,0,0,0,0c20.6-0.4,27.8-9.7,29.3-11.5C916.8,214,897.9,213.6,897.5,213.8z"/>
				<path fill="#003144" d="M926,203.7c0.1-0.1,0.2-0.2,0.3-0.3C926.2,203.4,926.1,203.5,926,203.7z"/>
				<path fill="#003144" d="M901.1,221.9c0.1-0.1,0.2-0.2,0.3-0.4C901.3,221.6,901.2,221.7,901.1,221.9z"/>
				<path fill="#003144" d="M871.2,235.9C871.2,235.9,871.2,235.9,871.2,235.9c-18.2-22.3-52.8,10.6-52,11.1
					c0.3,0.4,23.8,18.6,51.4-9.6c0,0,0,0,0,0c23-3.1,29.2-13.4,30.5-15.5C892.9,233.5,871.6,235.6,871.2,235.9z"/>
				<path fill="#003144" d="M876.9,243.8c0.1-0.2,0.2-0.3,0.2-0.5C877.1,243.3,877,243.5,876.9,243.8z"/>
				<path fill="#003144" d="M846.1,262.4C846.1,262.4,846.1,262.4,846.1,262.4c-25.7-20.3-58.3,19.4-57.3,19.9
					c0.5,0.5,31.8,15.1,56.9-18.3c0,0,0,0,0,0c25.4-6.6,30.1-17.9,31.2-20.3C870.2,256.7,846.6,262,846.1,262.4z"/>
				<path fill="#003144" d="M823.5,293.6C823.5,293.6,823.5,293.6,823.5,293.6c-34.3-16.8-63.1,30.5-61.6,31
					c0.7,0.5,40.7,9.5,61.6-29.2c0,0,0,0,0,0c27.4-11,30.2-23,31-25.8C849.7,283.8,824,293.1,823.5,293.6z"/>
				<path fill="#003144" d="M854.4,269.6c0.1-0.2,0.1-0.4,0.2-0.6C854.6,269.1,854.5,269.3,854.4,269.6z"/>
				<path fill="#003144" d="M804.9,330C804.9,330,804.9,330,804.9,330c-44.1-11.4-65.9,44.5-64,44.8c1,0.5,50.2,1.4,64.4-42.9
					c0,0,0,0,0,0c28.7-16.2,29.2-28.9,29.4-32C832.7,315.1,805.4,329.3,804.9,330z"/>
				<path fill="#003144" d="M834.7,299.8c0-0.2,0.1-0.5,0.1-0.7C834.8,299.2,834.8,299.4,834.7,299.8z"/>
				<path fill="#003144" d="M929.3,167.5c30.1,0.7,47.4-15.7,53.1-20.2c9.6-3.3,19.4-6.2,29.4-8.7c-9.9,2.1-19.6,4.6-29.3,7.4
					C979.1,144.4,954.5,140.5,929.3,167.5z"/>
				<path fill="#003144" d="M741.7,381.2c0.6-2.1-1-3.7-3.6-3.5c-2.6,0.1-5.2,1.9-5.8,4.1c-8.8,30.8-11.8,62.5-8.2,93.8
					c0.2,2.2,2.9,3.1,5.8,2c2.9-1.1,5.1-3.6,4.8-5.7C730.9,441.6,733.5,411,741.7,381.2z"/>
			</g>
			<g>
				<g>
					<path fill="#FFCA28" d="M882.5,99.6C882.5,99.6,882.5,99.6,882.5,99.6c-0.4,0,13.6-18.5,28.7-18.8c0.4,0-14.9-2-30.2,18.8
						c0,0,0,0,0,0c-36.6,16.6-19.6,38.9-20,38.5C860.7,137.5,890.7,121.9,882.5,99.6z"/>
					<path fill="#FFCA28" d="M850.4,115.1C850.5,115.1,850.5,115.1,850.4,115.1c-0.4,0,12.1-21.1,28.5-23c0.5,0-16.6-0.4-30.1,23.2
						c0,0,0,0,0,0c-37.8,22.2-15.3,43.4-15.8,43C832.6,157.8,863.1,137.5,850.4,115.1z"/>
					<path fill="#FFCA28" d="M817.5,135.8C817.5,135.8,817.6,135.8,817.5,135.8c-0.5,0.1,10-23.9,27.8-28
						c0.6-0.1-18.4,1.7-29.6,28.4c0,0,0,0,0,0c-38.5,29-9.8,48.1-10.4,47.7C804.8,183.3,835.2,157.4,817.5,135.8z"/>
					<path fill="#FFCA28" d="M784.2,162.5C784.2,162.5,784.2,162.5,784.2,162.5c-0.5,0.2,7.2-26.9,26.4-33.7
						c0.6-0.2-20.3,4.4-28.4,34.5c0,0,0,0,0.1,0c-38.5,37.3-2.7,52.9-3.5,52.4C778.1,215.1,807.6,182.5,784.2,162.5z"/>
					<path fill="#FFCA28" d="M751.3,196.6C751.3,196.6,751.3,196.6,751.3,196.6c-0.6,0.3,3.6-30,24.1-40.4
						c0.7-0.3-22.2,7.9-26.2,41.5c0,0,0,0,0.1,0c-37.1,47.3,6.4,57.4,5.4,57C753.7,254.1,781,213.8,751.3,196.6z"/>
					<path fill="#FFCA28" d="M719.9,239.5C720,239.5,720,239.5,719.9,239.5c-0.6,0.4-1.2-33.2,20.2-48c0.8-0.5-23.8,12.5-22.4,49.7
						c0,0,0,0,0.1,0c-33.7,59.3,18.2,61.4,16.8,61C733.4,301.4,756.6,252.1,719.9,239.5z"/>
					<path fill="#FFCA28" d="M692.3,292.9C692.3,292.9,692.3,292.9,692.3,292.9c-0.7,0.6-7.7-36.4,14.2-56.8
						c0.8-0.7-25,18.4-16.3,59.1c0,0,0,0,0.1-0.1c-26.8,73.7,33.6,64.1,31.8,63.8C720.2,358.3,736.2,298.8,692.3,292.9z"/>
					<path fill="#FFCA28" d="M897.1,145.7C897.1,145.6,897.1,145.6,897.1,145.7c0.3-0.1,15,4.2,23.6-4.5c-0.4,0.1-7.1,10-24.4,5.7
						c0,0,0,0,0,0c-25.4,16.9-34.4-6.8-34.5-7.1C861.4,139.2,891.4,120.8,897.1,145.7z"/>
					<path fill="#FFCA28" d="M874,161.5C874,161.5,874,161.5,874,161.5c0.4-0.2,17,2.5,24.9-7.5c-0.4,0.2-6.1,11.2-25.6,8.9
						c0,0,0,0,0,0c-24.9,21-38.9-2.5-39.1-2.8C833.7,159.5,863.8,136.1,874,161.5z"/>
					<path fill="#FFCA28" d="M851.3,181.2C851.3,181.2,851.3,181.2,851.3,181.2c0.4-0.2,19.1,0.3,26-11.2
						c-0.4,0.2-4.7,12.4-26.5,12.7c0,0,0,0,0,0c-23.9,25.6-43.6,3.3-43.8,2.8C806.3,185,835.8,155.9,851.3,181.2z"/>
					<path fill="#FFCA28" d="M829.7,205.2C829.7,205.2,829.7,205.2,829.7,205.2c0.4-0.3,21.2-2.6,26.8-15.6
						c-0.4,0.3-3,13.6-27.1,17.2c0,0,0,0,0,0c-22,30.9-48.1,10.7-48.4,10.3C780,216.5,808.1,180.8,829.7,205.2z"/>
					<path fill="#FFCA28" d="M809.9,234.1C809.9,234.1,809.9,234.1,809.9,234.1c0.4-0.4,23.1-6.3,26.9-20.8
						c-0.5,0.5-0.9,14.7-27,22.6c0,0,0,0,0,0c-18.8,36.7-52,20.4-52.6,19.9C756.1,255.3,781.3,211.7,809.9,234.1z"/>
					<path fill="#FFCA28" d="M793.2,268.5C793.2,268.5,793.2,268.5,793.2,268.5c0.4-0.6,24.6-11,26.2-27c-0.5,0.6,1.9,15.6-25.9,29
						c0,0,0,0,0-0.1c-13.8,43-54.8,32.8-55.5,32.3C736.4,302.2,756.6,249.7,793.2,268.5z"/>
					<path fill="#FFCA28" d="M781.3,308.9C781.3,308.9,781.3,308.9,781.3,308.9c0.4-0.8,25.5-17,24-34.3
						c-0.4,0.8,5.2,16.1-23.2,36.3c0,0,0,0,0-0.1c-6.3,49.6-55.2,48.5-56.2,48C723.8,358.5,735.9,296,781.3,308.9z"/>
					<path fill="#FFCA28" d="M921.4,109.6c8.6-3.4,17.5-6.5,26.6-9.2c-9.1,2.2-18,4.8-26.8,7.7c-3.6-1.6-27.9-6-47.4,22.9
						C903,132,916.6,114.5,921.4,109.6z"/>
				</g>
				<g>
					<path fill="#FFCA28" d="M732.2,475.9c-2.7,1.2-5.5,0.2-6.1-2.3c-8.9-35.9-11.2-72-7.7-106.8c0.2-2.4,2.5-4.5,5.1-4.6
						c2.5-0.1,4.4,1.7,4.2,4c-3.1,33.7-0.6,68.5,8.4,103.1C736.6,471.7,734.9,474.6,732.2,475.9z"/>
				</g>
			</g>
		</g>
		<g>
			<g>
				<path fill="#003144" d="M1037.1,379.3c-0.1-0.5,14.1-27.4-1.9-42.6c-8.8-8.1-11.7-21.4-11.8-31.6c-0.1-6.9,3.5-15.7,10.1-24.4
					c24.1-31.8,53.5-61.3,87.2-87.2c-34.5,26.4-64.7,56.5-89.5,89c-5.1,6.7-9.3,13.6-12.2,20.4c-8.8,18.1-18.1,55.8-8.7,70.2
					C1016.8,383.8,1037.2,379.1,1037.1,379.3z"/>
				<path fill="#003144" d="M1118.8,325.1c-9.6,4.8-23.9,11.8-39.2,16.4c-29.5,8.6-36.8,37.9-36.1,37.6c-0.1,0.2,17.9,2.2,31.3-6.8
					c18-12.5,38.9-36.5,49.4-46.8c3.8-4,7.2-8.2,10-12.6c13.8-21.3,31.2-41.3,51.4-59.2c-19.9,17.5-37.2,36.9-51.2,57.7
					C1130.7,317,1125.3,321.8,1118.8,325.1z"/>
				<path fill="#003144" d="M1050.7,266c-10,15.8-23.3,49.3-17.6,63.5c3.8,10.5,21.8,8.8,21.7,8.9c0-0.4,16.5-23.4,5-39.4
					c-6.3-8.6-7-21.1-5.6-30.6c0.8-6.4,5.2-14.2,12-21.5c25.2-27.1,54.4-52,87-73.6c-33.4,21.9-63.5,47.3-89.2,75.1
					C1058.7,254,1054.2,260,1050.7,266z"/>
				<path fill="#003144" d="M1133.4,298.1c-9,3.4-22.5,8.3-36.2,10.8c-26.6,4.4-37.3,30.4-36.7,30.2c-0.1,0.1,14.8,4.3,27.7-2.3
					c17.4-9.2,39.2-29.1,50-37.7c4-3.3,7.5-6.9,10.7-10.8c15.4-18.7,33.6-36.1,54-51.5c-20.1,14.9-38.1,31.8-53.6,50
					C1144.9,291.8,1139.5,295.7,1133.4,298.1z"/>
				<path fill="#003144" d="M1096.7,219.7c-5.3,4.8-10,9.9-13.8,15.2c-10.7,13.8-26.7,43.4-23.9,57.3c1.7,10.1,17.4,10.8,17.3,10.9
					c0.1-0.3,17.7-19.8,10-36.1c-4.2-8.7-3.1-20.6-0.7-29.4c1.6-5.9,6.3-12.8,13.2-19c25.5-23.1,54.2-44,85.5-61.9
					C1152.2,174.8,1122.8,196.1,1096.7,219.7z"/>
				<path fill="#003144" d="M1165.6,265.1c-4.4,4.3-9.7,7.5-15.4,9.1c-8.4,2.3-20.8,5.5-33,6.2c-23.6,1.2-36.6,24-36.1,23.9
					c-0.1,0.1,12,5.8,24,1.2c16.4-6.5,38.4-22.8,49-29.8c4-2.7,7.6-5.8,10.9-9.1c16.4-16.3,34.9-31.3,55.2-44.3
					C1200.3,234.8,1181.9,249.3,1165.6,265.1z"/>
				<path fill="#003144" d="M1128.9,196c-5.3,4.1-10,8.5-14,13c-11.1,12-28.8,38.1-28.3,51.4c0.1,9.7,13.5,12.1,13.4,12.1
					c0.1-0.3,18.1-16.6,13.6-32.8c-2.5-8.7,0-19.8,3.3-27.9c2.1-5.5,7.2-11.5,14-16.8c25.3-19.6,53.1-37.1,83.1-51.9
					C1183.3,158.2,1154.8,176,1128.9,196z"/>
				<path fill="#003144" d="M1183.2,246c-4.5,3.7-9.7,6.2-14.9,7.2c-7.7,1.4-19,3.1-29.8,2.5c-20.7-1.3-35.2,18.7-34.7,18.6
					c-0.1,0.1,9.5,6.8,20.6,3.8c15.1-4.2,36.7-17.5,47.1-23.1c3.9-2.2,7.5-4.8,11-7.7c16.9-14.1,35.4-26.9,55.3-37.9
					C1218.3,220,1200,232.3,1183.2,246z"/>
				<path fill="#003144" d="M1146.2,187.5c-11.2,10.5-30,33.5-31.4,46.1c-1.2,9.2,10.1,12.8,10,12.9c0.1-0.2,18.1-13.8,16.3-29.8
					c-1-8.5,2.6-18.9,6.5-26.3c2.6-5,7.7-10.3,14.4-14.7c24.8-16.5,51.6-31.1,80.2-43.3c-29.2,12.3-56.7,27.1-82.1,43.9
					C1154.9,179.8,1150.2,183.5,1146.2,187.5z"/>
				<path fill="#003144" d="M1187.3,234.8c-7,0.6-17.2,1.2-26.6-0.4c-17.9-3.2-33.3,14.2-32.9,14.1c-0.1,0.1,7.3,7.4,17.4,5.8
					c13.8-2.4,34.7-12.9,44.6-17.5c3.8-1.8,7.3-3.9,10.8-6.4c17-12.1,35.4-22.9,54.7-32.2c-19,8.9-37,19.3-53.9,31
					C1197,232.4,1192.1,234.4,1187.3,234.8z"/>
				<path fill="#003144" d="M1176.3,169.8c-11.2,9.1-30.6,29.3-33.4,41.2c-2.3,8.6,7.1,13.2,7,13.3c0.1-0.2,17.7-11.5,18.2-26.9
					c0.2-8.3,4.7-17.9,9-24.7c2.9-4.6,8.1-9.3,14.5-12.9c24.1-13.9,49.9-26,77-35.8c-27.7,9.9-54.1,22.2-78.7,36.3
					C1185,163.1,1180.4,166.3,1176.3,169.8z"/>
				<path fill="#003144" d="M1206.7,218.9c-6.3,0-15.5-0.4-23.5-2.8c-15.4-4.7-31.1,10.4-30.8,10.4c-0.1,0,5.4,7.8,14.5,7.2
					c12.5-1,32.4-9.2,41.9-12.7c3.6-1.4,7.1-3.2,10.5-5.2c16.9-10.3,34.9-19.4,53.6-27c-18.4,7.3-36,16.1-52.8,26
					C1215.7,217.4,1211,218.9,1206.7,218.9z"/>
				<path fill="#003144" d="M1205.2,155.3c-11.1,7.9-30.8,25.7-34.8,36.8c-3.1,8,4.6,13.4,4.5,13.4c0.1-0.2,17.2-9.4,19.6-24.2
					c1.2-8,6.4-16.8,11.1-23c3.1-4.2,8.4-8.3,14.5-11.4c23.3-11.6,47.9-21.5,73.7-29.5c-26.3,7.9-51.5,18-75.3,29.8
					C1213.8,149.5,1209.3,152.2,1205.2,155.3z"/>
				<path fill="#003144" d="M1226.2,205.1c-5.7-0.5-13.8-1.6-20.6-4.6c-13.1-5.8-28.9,7.2-28.7,7.2c-0.1,0,3.7,8,11.9,8.2
					c11.2,0.2,30-6,39-8.6c3.4-1.1,6.8-2.5,10.1-4.2c16.7-8.7,34.1-16.3,52.2-22.5c-17.7,6-34.8,13.2-51.3,21.6
					C1234.4,204.4,1230,205.5,1226.2,205.1z"/>
				<path fill="#003144" d="M1232.8,143.5c-10.9,6.8-30.6,22.4-35.5,32.8c-3.8,7.5,2.4,13.3,2.3,13.3c0.1-0.1,16.5-7.6,20.5-21.8
					c2.1-7.6,7.8-15.8,12.8-21.4c3.3-3.8,8.5-7.4,14.4-9.9c22.4-9.6,45.9-17.7,70.3-24c-24.9,6.3-48.9,14.4-71.8,24.2
					C1241.2,138.5,1236.8,140.8,1232.8,143.5z"/>
				<path fill="#003144" d="M1245.4,193.3c-5-0.9-12.2-2.6-18-6.1c-11-6.7-26.7,4.6-26.5,4.7c-0.1,0,2.3,8,9.5,8.9
					c9.9,1.1,27.7-3.4,36.1-5.3c3.2-0.8,6.5-1.9,9.7-3.4c16.3-7.3,33.2-13.5,50.5-18.5c-17,4.8-33.5,10.7-49.6,17.6
					C1253,193.2,1248.9,194,1245.4,193.3z"/>
				<path fill="#003144" d="M1234.3,164.6c-8.9,4.4-13.2,9.7-20.4,18.2c10.5-1.3,16-1.1,24.3-4.9c19.9-9.7,45.6-25.9,45.9-25.8
					c13.2-4.7,26.8-8.7,40.8-12.1c-13.8,3.1-27.4,6.9-40.7,11.3C1284.4,151.1,1256.8,153.4,1234.3,164.6z"/>
				<path fill="#003144" d="M1042.8,386c0.6-2.1-0.9-3.7-3.6-3.5c-2.6,0.1-5.3,2-6,4.1c-9.7,30.9-13.6,62.7-10.9,94.2
					c0.2,2.2,2.8,3.1,5.8,2c3-1.1,5.2-3.7,5-5.8C1030.2,446.6,1033.7,415.9,1042.8,386z"/>
			</g>
			<g>
				<g>
					<g>
						<path fill="#FFCA28" d="M1007.2,317c-10.1-9.1-15.6-23.8-17.6-35.1c-1.4-7.6,0.4-17.3,5.2-26.8c17.3-34.7,39.9-66.8,67.3-94.7
							c-28.1,28.4-51.4,61.1-69.1,96.7c-3.7,7.4-6.4,15-8,22.5c-5.2,20-7,62,5,78.1c8.3,11.9,27.5,6.7,27.4,6.9
							C1017.2,364.1,1025.8,334,1007.2,317z"/>
						<path fill="#FFCA28" d="M1051.5,322.5c13.9-5,26.5-12.8,34.9-18.1c5.6-3.6,9.9-8.9,12.4-15.2c9.4-22.8,22.1-44.1,37.8-63.2
							c-15.8,19.6-28.5,41.5-37.6,64.9c-1.9,4.8-4.3,9.5-7.2,13.9c-8.2,11.4-23.7,38-38.8,52c-11.3,10-29.3,7.7-29.3,7.6
							C1023.1,364.7,1024.4,332,1051.5,322.5z"/>
						<path fill="#FFCA28" d="M1023.8,275.4c-7.8-9.5-10.9-23.3-11.4-33.8c-0.4-7,2.3-15.5,7.5-23.5c19-29.4,42.3-56.2,69.3-79.4
							c-27.7,23.5-51.7,50.8-71.2,80.9c-4,6.2-7.2,12.7-9.5,19.2c-6.7,17.3-13.2,54.2-4.8,70.1c5.7,11.7,23,9.9,22.9,10
							C1026.6,318.6,1038.1,293.2,1023.8,275.4z"/>
						<path fill="#FFCA28" d="M1062,286.4c12.9-2.6,24.9-8,33-11.7c5.5-2.6,9.9-6.9,13-12.3c11.3-19.9,25.3-38.3,41.5-54.5
							c-16.5,16.7-30.5,35.6-41.6,56.1c-2.3,4.2-5,8.2-8.2,11.8c-8.7,9.4-25.9,31.4-41,41.5c-11.3,7.3-26.6,2.6-26.5,2.5
							C1031.7,320,1037.1,291.2,1062,286.4z"/>
						<path fill="#FFCA28" d="M1043.3,240.2c-5.8-9.6-7-22.6-6.4-32.1c0.4-6.4,3.6-13.9,9-20.6c20-24.9,43.4-47.3,69.8-66.3
							c-27.1,19.3-51.1,42.1-71.6,67.6c-4.2,5.2-7.7,10.8-10.4,16.4c-7.7,15-17.4,47.4-12,62.7c3.7,11.2,19,12,18.9,12.1
							C1040.7,279.5,1053.9,258.2,1043.3,240.2z"/>
						<path fill="#FFCA28" d="M1075.8,255.1c11.7-0.7,23.1-4.2,30.7-6.7c5.2-1.7,9.7-5.2,13.1-9.9c12.6-17.3,27.2-32.9,43.7-46.6
							c-16.7,14.1-31.5,30.3-44,48.1c-2.6,3.6-5.4,7-8.7,10c-8.9,7.7-26.9,25.6-41.5,32.6c-10.8,5-23.7-1.3-23.6-1.4
							C1045,281.4,1053.2,256.3,1075.8,255.1z"/>
						<path fill="#FFCA28" d="M1064.4,210.6c-4.1-9.5-3.9-21.6-2.3-30.3c1-5.9,4.6-12.4,10.1-18.1c20.4-21,43.5-39.6,69.1-55.3
							c-26.2,15.8-50,34.8-70.9,56.2c-4.3,4.4-7.9,9.1-10.9,14c-8.3,13-20.3,41.4-17.2,55.9c2,10.6,15.4,13.3,15.3,13.4
							C1057.7,246.2,1071.9,228.3,1064.4,210.6z"/>
						<path fill="#FFCA28" d="M1091.6,228.1c10.5,0.7,21.1-1.1,28.2-2.6c4.8-1,9.3-3.8,12.9-7.7c13.4-14.8,28.4-28.1,44.9-39.6
							c-16.8,11.9-32,25.6-45.3,40.9c-2.7,3.1-5.7,5.9-9,8.3c-8.8,6.2-27,20.5-40.8,25.1c-10.2,3.2-20.8-4.2-20.7-4.3
							C1061.3,248.4,1071.4,226.6,1091.6,228.1z"/>
						<path fill="#FFCA28" d="M1086.2,185.7c-2.7-9.3-1.3-20.4,1-28.4c1.5-5.4,5.4-11.1,10.8-15.8c20.4-17.6,43.1-33.1,67.8-45.8
							c-25.3,12.9-48.5,28.6-69.4,46.5c-4.2,3.6-8,7.7-11.1,12c-8.7,11.2-22.2,36.1-21.1,49.8c0.6,10,12.3,14.1,12.2,14.1
							C1076.5,217.8,1091.1,203,1086.2,185.7z"/>
						<path fill="#FFCA28" d="M1108.7,205c9.3,1.8,19,1.2,25.6,0.6c4.5-0.4,8.8-2.6,12.5-5.9c13.8-12.6,29-23.8,45.3-33.3
							c-16.6,9.9-31.9,21.5-45.8,34.5c-2.8,2.6-5.8,5-9.1,6.9c-8.7,4.9-26.6,16.2-39.5,18.8c-9.4,1.8-18-6.3-18-6.4
							C1079.5,220.3,1090.8,201.4,1108.7,205z"/>
						<path fill="#FFCA28" d="M1108.4,164.9c-1.5-8.9,0.9-19.3,3.7-26.5c1.8-4.9,5.9-9.9,11.3-13.8c20.2-14.7,42.3-27.5,66-37.8
							c-24.3,10.4-46.9,23.3-67.6,38.3c-4.2,3-7.9,6.5-11.2,10.2c-8.9,9.7-23.5,31.5-23.8,44.3c-0.5,9.3,9.5,14.4,9.4,14.5
							C1096.3,193.7,1111,181.6,1108.4,164.9z"/>
						<path fill="#FFCA28" d="M1126.6,185.2c8.2,2.7,17.1,3.1,23.1,3.1c4.1,0,8.3-1.6,12-4.4c14-10.7,29.1-20,45.1-27.8
							c-16.3,8.1-31.6,17.8-45.7,28.9c-2.8,2.2-5.8,4.1-9,5.6c-8.4,3.8-25.9,12.5-37.7,13.5c-8.7,0.6-15.5-7.9-15.4-7.9
							C1098.7,196.4,1110.8,180,1126.6,185.2z"/>
						<path fill="#FFCA28" d="M1130.4,147.5c-0.4-8.6,2.7-18.1,6-24.7c2.1-4.5,6.3-8.8,11.6-12.1c19.8-12.2,41.2-22.7,64-30.9
							c-23.3,8.3-45.2,18.8-65.4,31.3c-4.1,2.5-7.8,5.4-11.1,8.6c-9,8.4-24.2,27.4-25.8,39.3c-1.3,8.7,7.1,14.5,7,14.5
							C1116.6,173.4,1131.1,163.5,1130.4,147.5z"/>
						<path fill="#FFCA28" d="M1144.8,168.5c7.2,3.3,15.2,4.5,20.7,5.1c3.8,0.4,7.7-0.7,11.5-3.1c14-9,28.9-16.6,44.5-23
							c-15.9,6.6-31,14.6-45.2,23.9c-2.8,1.9-5.8,3.4-8.8,4.5c-8.1,2.8-24.9,9.4-35.6,9.1c-7.9-0.3-13.1-8.9-13-9
							C1118.5,176.2,1131.1,162.1,1144.8,168.5z"/>
						<path fill="#FFCA28" d="M1152,133.2c0.4-8.1,4.2-16.9,7.8-22.9c2.4-4.1,6.6-7.9,11.7-10.5c19.3-10.1,39.9-18.5,61.8-25
							c-22.3,6.5-43.4,15-63.1,25.2c-3.9,2.1-7.6,4.5-10.9,7.3c-9,7.2-24.6,23.8-27.3,34.9c-2.1,8,4.9,14.3,4.9,14.3
							C1137,156.4,1151.1,148.4,1152,133.2z"/>
						<path fill="#FFCA28" d="M1163.1,154.3c6.2,3.8,13.4,5.6,18.4,6.6c3.4,0.7,7.2-0.1,10.9-2c13.9-7.4,28.4-13.7,43.6-18.7
							c-15.5,5.3-30.3,11.8-44.3,19.6c-2.8,1.6-5.7,2.8-8.6,3.6c-7.7,2-23.8,6.8-33.5,5.5c-7.1-1-11-9.7-10.9-9.7
							C1138.4,159.2,1151.2,147.1,1163.1,154.3z"/>
					</g>
					<path fill="#FFCA28" d="M1209.8,116.9c11.6-4.9,23.7-9.1,36.2-12.6c-12.5,3.2-24.6,7.1-36.3,11.7c0.3-0.1-25.5,2.1-44.6,14
						c-7.5,4.7-10.6,10.4-15.8,19.5c9.8-1.3,15.1-1,22.2-5.2C1188.4,134,1209.4,116.8,1209.8,116.9z"/>
				</g>
				<g>
					<path fill="#FFCA28" d="M1029,481.8c-2.7,1.2-5.5,0.2-6.1-2.3c-8.9-35.9-11.3-71.9-7.8-106.8c0.2-2.4,2.5-4.5,5.1-4.6
						c2.5-0.1,4.4,1.7,4.2,4c-3,33.7-0.4,68.5,8.5,103.1C1033.4,477.6,1031.7,480.6,1029,481.8z"/>
				</g>
			</g>
		</g>
	</g>
</g>
</svg>
